<svg width="31" height="26" viewBox="0 0 31 26" fill="none" xmlns="http://www.w3.org/2000/svg">
<path d="M12.3861 2.98828C12.3861 1.3379 13.7292 0 15.3861 0C17.043 0 18.3861 1.3379 18.3861 2.98828V4.83961C23.7807 6.16476 27.7611 11.0226 27.7611 16.8064C27.7611 17.4254 27.2574 17.927 26.6361 17.927H4.13611C3.51479 17.927 3.01111 17.4254 3.01111 16.8064C3.01111 11.0381 7.0127 6.20053 12.3861 4.85479V2.98828ZM17.2611 8.21777C16.6398 8.21777 16.1361 8.71949 16.1361 9.33838C16.1361 9.95727 16.6398 10.459 17.2611 10.459C19.1409 10.459 20.4752 11.3829 21.5894 12.9691C21.9455 13.4761 22.647 13.5997 23.1561 13.2448C23.6651 12.8901 23.7891 12.1913 23.4329 11.6842C22.038 9.69836 20.0901 8.21777 17.2611 8.21777Z" fill="#333333"/>
<path d="M0.386108 22.4121C0.386108 20.7617 1.72925 19.4238 3.38611 19.4238H27.3861C29.043 19.4238 30.3861 20.7617 30.3861 22.4121C30.3861 24.0625 29.043 25.4004 27.3861 25.4004H3.38611C1.72925 25.4004 0.386108 24.0625 0.386108 22.4121Z" fill="#333333"/>
</svg>
