<svg width="17" height="17" viewBox="0 0 17 17" fill="none" xmlns="http://www.w3.org/2000/svg">
<path d="M4.56473 5.81436C3.48207 5.20918 2.43162 4.86205 1.68286 4.86205C1.31572 4.86205 1.12573 4.94726 1.04552 4.99792C0.950316 5.05771 0.841064 5.16339 0.841064 5.45292C0.841064 5.93106 1.13896 6.59265 1.67978 7.31582L1.79959 7.47603V12.3417C1.79959 12.3809 1.81131 12.4194 1.83335 12.4523C1.85508 12.4854 1.88221 12.5148 1.91367 12.5394C1.92093 12.5448 1.92853 12.5498 1.93645 12.5542L7.6451 15.745C7.67704 15.7628 7.71327 15.7722 7.75015 15.7722C7.78703 15.7722 7.82327 15.7628 7.8552 15.745C7.88714 15.7271 7.91366 15.7014 7.9321 15.6705C7.95054 15.6396 7.96024 15.6045 7.96023 15.5688V11.3345L8.45161 11.2271C8.78777 11.1534 8.91877 10.998 8.91877 10.673C8.91877 9.50203 7.16922 7.27024 4.56473 5.81436ZM2.01205 12.3451L2.01741 12.3417H2.01748L2.01205 12.3451ZM8.487 10.7857C8.48617 10.7866 8.46576 10.8068 8.35897 10.8302L7.70388 10.9735C7.65737 10.9837 7.61582 11.0089 7.58605 11.0449C7.55627 11.081 7.54006 11.1258 7.54005 11.1719V15.2165L2.21978 12.2429V7.41008C2.21979 7.36724 2.20582 7.3255 2.17988 7.2908L2.02015 7.07725C1.54489 6.44188 1.26125 5.83472 1.26125 5.45292C1.25908 5.4145 1.26355 5.37599 1.27448 5.339C1.28597 5.33174 1.39409 5.26887 1.68286 5.26887C2.36012 5.26887 3.33393 5.59614 4.35464 6.16675C6.92209 7.60188 8.49859 9.75858 8.49859 10.673C8.5024 10.711 8.49847 10.7492 8.487 10.7857Z" fill="#333333"/>
<path d="M15.5833 3.76559C14.6862 2.73034 13.4938 1.76988 12.2259 1.06111C11.3219 0.555853 10.4389 0.214281 9.67216 0.073343C8.90217 -0.068293 8.26984 -0.0039305 7.84156 0.258976C7.84002 0.259774 7.83848 0.260572 7.83703 0.261461L0.595701 4.31097C0.595083 4.31128 0.594877 4.31182 0.594263 4.31213C0.591701 4.31373 0.588727 4.3149 0.58616 4.31652C0.202704 4.55817 0 4.95129 0 5.45337C0 6.09749 0.331139 6.88691 0.958539 7.73959V12.3999C0.958539 12.712 1.19468 13.0794 1.50777 13.2545L8.04057 16.9063C8.1395 16.9647 8.2525 16.997 8.36833 17C8.41425 16.9995 8.45982 16.9921 8.50344 16.9782C8.52507 16.9741 8.54589 16.9667 8.5651 16.9563L8.57925 16.9484C8.58161 16.9471 8.58428 16.9468 8.58664 16.9455C8.58884 16.9442 8.59035 16.9422 8.59259 16.9409L15.797 12.9121C15.9505 12.8428 16.0416 12.6897 16.0416 12.4993V7.929C16.2967 7.85596 16.5245 7.71301 16.6976 7.51739C16.8982 7.28358 17 6.98313 17 6.62436C17 5.83478 16.4968 4.8195 15.5833 3.76559ZM8.54344 11.6241C8.49695 11.6343 8.45542 11.6595 8.42567 11.6956C8.39592 11.7317 8.37971 11.7764 8.37971 11.8226V16.5484C8.37928 16.5632 8.3779 16.5779 8.37559 16.5925L8.37497 16.5929C8.33043 16.5923 8.28709 16.5788 8.25065 16.5539L1.71786 12.9022C1.52377 12.7937 1.37872 12.5474 1.37872 12.3999V7.67414C1.37873 7.6313 1.36476 7.58955 1.33881 7.55485C0.746393 6.76294 0.420181 6.01663 0.420181 5.45337C0.420181 5.09121 0.552719 4.82383 0.813898 4.6586L0.821486 4.65438C1.03896 4.51933 1.33122 4.45328 1.68021 4.45328C2.48908 4.45328 3.59964 4.80578 4.77422 5.4624C7.29077 6.86932 9.33825 9.20689 9.33825 10.6734C9.33825 11.1889 9.07082 11.5087 8.54344 11.6241ZM12.82 9.76838L10.6961 10.9561C10.6722 10.9697 10.6457 10.9786 10.6182 10.9823C10.5908 10.986 10.5628 10.9844 10.536 10.9776C10.5091 10.9707 10.484 10.9588 10.4619 10.9425C10.4399 10.9262 10.4214 10.9059 10.4075 10.8826C10.3937 10.8593 10.3847 10.8337 10.3811 10.807C10.3775 10.7804 10.3795 10.7533 10.3868 10.7274C10.394 10.7015 10.4066 10.6773 10.4236 10.6561C10.4406 10.6349 10.4618 10.6171 10.486 10.6039L12.6099 9.4162C12.6581 9.38979 12.7152 9.38288 12.7686 9.39698C12.822 9.41108 12.8676 9.44504 12.8953 9.49148C12.923 9.53791 12.9306 9.59306 12.9165 9.64492C12.9024 9.69678 12.8677 9.74115 12.82 9.76838ZM14.788 8.66798L14.1049 9.04988C14.081 9.06323 14.0546 9.0719 14.0272 9.07539C13.9999 9.07887 13.9721 9.0771 13.9454 9.07019C13.9188 9.06327 13.8938 9.05134 13.8719 9.03507C13.85 9.0188 13.8316 8.99852 13.8179 8.97538C13.8041 8.95224 13.7951 8.9267 13.7915 8.90021C13.7879 8.87372 13.7897 8.84681 13.7969 8.821C13.804 8.7952 13.8163 8.771 13.8331 8.74981C13.8499 8.72862 13.8709 8.71083 13.8948 8.69748L14.5779 8.31558C14.6018 8.30219 14.6282 8.29349 14.6556 8.28998C14.6829 8.28648 14.7107 8.28823 14.7374 8.29514C14.7641 8.30204 14.7891 8.31397 14.811 8.33025C14.8329 8.34652 14.8513 8.36681 14.8651 8.38996C14.8789 8.41312 14.8879 8.43868 14.8915 8.46519C14.8951 8.4917 14.8932 8.51863 14.8861 8.54445C14.8789 8.57027 14.8665 8.59447 14.8497 8.61566C14.8329 8.63686 14.8119 8.65464 14.788 8.66798Z" fill="#333333"/>
</svg>
