<svg width="79" height="78" viewBox="0 0 79 78" fill="none" xmlns="http://www.w3.org/2000/svg">
<path d="M55.3972 -0.000121891C51.4427 -0.000840001 47.7061 2.15181 46.0277 5.68174C44.6179 4.88241 43.0455 4.47542 41.4567 4.90122C39.6523 5.66896 38.3923 6.94586 37.6052 8.39055C33.03 6.94828 28.1084 7.18201 24.0317 8.89459C19.7135 10.7474 16.2496 14.139 14.3025 18.3914L11.4371 16.7373C8.78087 15.4895 5.649 16.4296 4.69322 18.9493C3.39691 22.5662 2.45855 27.7778 4.91345 33.1907H4.18425C2.01098 33.1907 0.357929 35.2624 0.846568 37.38L7.49502 66.2177C8.15455 69.0756 10.6969 71.1185 13.6198 71.1728L13.1843 73.7177C12.6547 75.8357 14.2478 77.9999 16.4681 77.9999H62.8678C65.0881 77.9999 66.6786 75.8357 66.1492 73.7177L65.7161 71.1728C68.6378 71.1176 71.1693 69.0748 71.8287 66.2177L78.4869 37.38C78.9042 35.5716 77.7587 33.8004 76.062 33.3205C75.5767 31.5593 74.588 29.98 73.2234 28.7788C74.0978 25.7601 73.3984 22.4682 71.3197 20.0577C69.2525 17.6609 66.1263 16.4916 63.0293 16.8938C62.5081 15.5933 61.4791 14.6178 60.2544 13.8987C62.9948 9.92245 62.346 4.26926 58.7691 0.692392C58.6129 0.536675 58.4196 0.425864 58.2063 0.369549C57.2741 0.119345 56.3293 -0.000121891 55.3972 -0.000121891ZM57.1614 2.83833C59.8485 5.82654 60.1631 10.3293 57.6484 13.1548L55.4118 13.5093C54.7268 13.6159 54.2585 14.2585 54.367 14.9432C54.4736 15.6283 55.1162 16.0966 55.8009 15.9881L58.1231 15.6163C59.5763 16.253 60.5386 17.1501 60.7952 18.1072C61.0145 18.9247 60.7854 19.9403 60.11 21.0387C59.4849 22.0555 58.5038 23.0861 57.4159 23.914L55.5978 23.7941C54.9054 23.7514 54.3086 24.2761 54.2666 24.9687C54.2221 25.6611 54.7486 26.2579 55.4412 26.2998L56.6206 26.3732C56.4989 27.4472 55.8211 28.7619 54.7291 29.9727C53.3634 31.4869 51.4278 32.7518 49.9869 33.1905H41.141C41.6768 32.212 42.2204 31.2372 42.7683 30.2639L48.0684 28.8446C48.7389 28.6666 49.1371 27.9777 48.9567 27.3079C48.7775 26.6397 48.0907 26.2431 47.4224 26.4221L44.5105 27.2003C45.611 25.2843 46.7274 23.373 47.8433 21.4596L53.1459 20.0404C53.8164 19.8624 54.2146 19.1734 54.0342 18.5036C53.8561 17.8344 53.1689 17.4366 52.4999 17.6154L49.6296 18.3886C50.5517 16.8016 51.4718 15.2108 52.38 13.6122C52.7164 13.0118 52.5055 12.2524 51.9078 11.9115C51.3058 11.5683 50.5394 11.7785 50.1973 12.3813C49.2913 13.9759 48.372 15.5667 47.4494 17.1553L46.6737 14.2605C46.4957 13.5901 45.8068 13.1919 45.137 13.3723C44.4677 13.5503 44.0699 14.2375 44.2487 14.9066L45.6753 20.2018C44.5673 22.1028 43.4599 24.0053 42.3621 25.9179L41.5962 23.055C41.4182 22.3846 40.7293 21.9864 40.0595 22.1668C39.3903 22.3448 38.9924 23.032 39.1712 23.701L40.6027 29.0159C39.8244 30.3996 39.0538 31.7907 38.2977 33.1905H36.9224C34.5749 30.9037 33.7632 27.5175 33.6606 24.5354C33.5608 20.9063 34.607 17.2854 37.1378 15.2173L37.6932 16.0542C38.0763 16.6307 38.8543 16.7874 39.4306 16.4042C40.008 16.022 40.1658 15.2438 39.7829 14.6668L38.7723 13.1447C39.1147 10.6399 39.9096 8.3868 42.1027 7.3136C43.0587 7.05735 44.3258 7.44672 45.6043 8.3879L46.4412 10.5779C46.6887 11.2237 47.4127 11.5468 48.0586 11.2997C48.7045 11.0521 49.0276 10.3283 48.7805 9.68226L47.9705 7.56078C49.0984 3.35156 53.4799 2.33562 57.1614 2.83833ZM36.7609 10.5268C36.5508 11.2432 36.3972 11.98 36.2984 12.7168C35.7461 13.0864 35.2448 13.5026 34.7911 13.955C28.2782 12.5939 22.0297 15.8518 19.6663 21.4844L16.3066 19.5463C17.999 15.7195 21.08 12.6697 24.9395 11.0137C28.9035 9.48336 33.0164 9.29603 36.7609 10.5268ZM31.3286 15.822C31.957 15.8145 32.5887 15.8599 33.2128 15.9664C31.6649 18.4984 31.0807 21.6351 31.1622 24.5994C31.1981 25.9019 31.3622 27.1828 31.6369 28.3947L21.6875 22.6517C23.6988 18.5334 27.0057 15.9175 31.3286 15.822ZM10.1867 18.9028L12.4697 20.2218C11.761 21.7677 11.1774 23.8081 11.3245 26.1336C11.4655 28.3621 12.322 30.8198 14.2903 33.1907H7.71522C4.93842 28.1271 5.7912 23.3165 7.05209 19.7985C7.5024 18.4361 8.96624 18.3214 10.1867 18.9028ZM69.4233 21.6948C70.7749 23.2621 71.3245 25.3302 70.9844 27.3204C69.0809 26.4366 66.9263 26.216 64.867 26.7087C63.6859 25.6286 62.2615 24.8125 60.6851 24.3523C61.2789 23.733 61.8092 23.0639 62.2463 22.353C62.8099 21.4363 63.2275 20.4221 63.3498 19.375C65.5897 19.1173 68.1905 20.3121 69.4233 21.6948ZM14.6573 21.4846L32.8971 32.0116C33.1021 32.4254 33.3239 32.8209 33.5652 33.191H17.7699C14.9025 30.6491 13.9691 28.1713 13.8302 25.9773C13.7225 24.2743 14.1332 22.7061 14.6573 21.4846ZM19.9183 26.5499C19.4701 26.5513 19.0567 26.7918 18.8343 27.1813L18.1492 28.3558C17.7978 28.958 18.0057 29.7311 18.6116 30.076C19.2122 30.4222 19.9799 30.2151 20.3245 29.6134L20.9999 28.429C21.3458 27.8309 21.1422 27.0657 20.5448 26.7186C20.3544 26.6083 20.1384 26.5503 19.9183 26.5499ZM59.1435 26.565C62.5089 27.1627 65.1479 29.8177 65.7161 33.1939H54.991C55.5597 32.7209 56.0989 32.2012 56.5962 31.6498C57.9233 30.1785 58.9972 28.4173 59.1435 26.565ZM70.7104 30.0226C71.9157 30.7862 72.8436 31.8976 73.38 33.1939H68.2414C68.044 31.657 67.5187 30.223 66.7365 28.9631C68.1401 28.9706 69.6955 29.3949 70.7104 30.0226ZM24.5333 29.2176C24.0856 29.2185 23.6723 29.458 23.4493 29.8465L22.7642 31.0308C22.4195 31.6308 22.6266 32.3966 23.2267 32.7412C23.8272 33.0874 24.5949 32.8803 24.9395 32.2786L25.6223 31.0942C25.9669 30.4942 25.7598 29.7284 25.1598 29.3838C24.9692 29.2742 24.7531 29.2172 24.5333 29.2176ZM16.1598 71.1785H45.1272C45.8172 71.1771 46.3763 70.6181 46.3776 69.9281C46.3801 69.2352 45.8201 68.6717 45.1272 68.6704H13.7398C11.9198 68.6704 10.3464 67.429 9.93714 65.6557L4.60267 42.5267H28.7495C29.4417 42.5243 30.0002 41.9611 29.9975 41.2689C29.995 40.5804 29.4381 40.0234 28.7495 40.021H4.02518L3.28863 36.8301C3.14937 36.2266 3.56494 35.6996 4.18423 35.6996H75.1493C75.7685 35.6996 76.1841 36.2268 76.0448 36.8302L75.3083 40.021H35.5742C34.882 40.0183 34.3188 40.5768 34.3164 41.269C34.3139 41.9648 34.8784 42.5295 35.5742 42.5267H74.7284L69.3866 65.6557C68.9775 67.429 67.4138 68.6704 65.5938 68.6704H51.9445C51.2526 68.6731 50.6938 69.2361 50.6965 69.9281C50.6978 70.6172 51.2554 71.1758 51.9445 71.1785H63.1737L63.6998 74.2397C63.7051 74.2699 63.7074 74.2956 63.7168 74.3232C63.8598 74.8952 63.4202 75.4977 62.8677 75.4977H16.4682C15.9157 75.4977 15.4736 74.8951 15.6166 74.3232L16.1598 71.1785ZM9.641 45.4744C8.95193 45.4771 8.39438 46.0356 8.39304 46.7247C8.39054 47.4167 8.94906 47.9798 9.641 47.9825H11.0113C11.7033 47.9797 12.262 47.4167 12.2593 46.7247C12.258 46.0356 11.7004 45.477 11.0113 45.4744H9.641ZM16.4681 45.4744C15.7752 45.4716 15.2117 46.0318 15.2103 46.7247C15.2078 47.4205 15.7723 47.9853 16.4681 47.9825H17.8262C18.5219 47.9853 19.0866 47.4205 19.0839 46.7247C19.0827 46.0318 18.5191 45.4717 17.8262 45.4744H16.4681ZM23.2927 45.4744C22.5998 45.4716 22.0363 46.0318 22.035 46.7247C22.0325 47.4205 22.597 47.9853 23.2927 47.9825H24.6532C25.349 47.9853 25.9137 47.4205 25.911 46.7247C25.9097 46.0318 25.3461 45.4717 24.6532 45.4744H23.2927ZM13.7397 63.2149C13.0439 63.2122 12.4792 63.7769 12.482 64.4727C12.4845 65.1646 13.0478 65.7234 13.7397 65.7207H36.9347C37.6266 65.7234 38.1897 65.1646 38.1924 64.4727C38.1949 63.7769 37.6304 63.2122 36.9347 63.2149H13.7397Z" fill="black"/>
</svg>
