<svg width="79" height="79" viewBox="0 0 79 79" fill="none" xmlns="http://www.w3.org/2000/svg">
<path d="M39.6696 0.668213C18.1471 0.668213 0.674805 18.1478 0.674805 39.6704C0.674805 61.193 18.1471 78.6652 39.6696 78.6652C61.1922 78.6652 78.662 61.193 78.662 39.6704C78.662 18.1478 61.1922 0.668213 39.6696 0.668213ZM39.6696 3.18661C59.8325 3.18661 76.1534 19.5075 76.1534 39.6704C76.1534 59.8332 59.8325 76.1468 39.6696 76.1468C19.5068 76.1468 3.19321 59.8332 3.19321 39.6704C3.19321 19.5075 19.5068 3.18661 39.6696 3.18661ZM41.8318 7.02931C41.1392 6.9866 40.5412 7.50887 40.4952 8.20137C40.4502 8.89296 40.9732 9.49066 41.6647 9.5379C56.623 10.5156 68.6004 22.3795 69.7653 37.2846C69.8214 37.9776 70.4287 38.4935 71.1215 38.437C71.8144 38.3811 72.3304 37.7736 72.2738 37.0807C71.0127 20.9424 58.025 8.08776 41.8318 7.02931ZM31.8097 9.13745C31.6581 9.13994 31.503 9.14878 31.3478 9.15256C28.7738 9.23155 26.2165 9.84325 23.9105 11.0075C18.457 14.2031 14.7927 19.7878 14.9573 26.3956C15.0463 28.9695 15.5891 30.8616 15.0506 33.823C14.5703 36.3954 14.4354 38.3108 14.9032 40.0638C15.371 41.8169 16.4364 43.234 17.9941 44.791C18.0092 44.8062 18.0248 44.8251 18.0408 44.8387C18.0408 44.8387 22.7327 48.9128 29.3331 46.6864C32.7235 45.5427 35.3008 42.9243 37.876 40.6691C40.4513 38.4139 42.9447 36.5462 45.9644 36.2858C50.1276 35.9268 53.0266 35.1557 55.0086 33.6298C56.9906 32.1041 57.8046 29.8056 57.8046 27.2048C57.8046 23.631 57.4622 21.1407 56.1044 19.2639C54.7466 17.3871 52.5655 16.4548 49.532 15.6423C46.5148 14.8342 44.5825 13.2695 42.0283 11.7799C39.554 10.3371 36.5112 9.07497 31.8097 9.13745ZM32.2569 11.6509C36.2605 11.6547 38.5653 12.6651 40.7655 13.9482C43.1123 15.3168 45.3439 17.1237 48.8809 18.071C51.734 18.8353 53.2256 19.5798 54.0627 20.7368C54.8997 21.8938 55.2887 23.8012 55.2887 27.2011C55.2887 29.3456 54.8031 30.6009 53.4681 31.6286C52.1331 32.6563 49.6925 33.4339 45.7507 33.7735C41.8343 34.111 38.8669 36.4587 36.2151 38.7809C33.5633 41.1031 31.1434 43.4135 28.5247 44.2968C23.1356 46.1147 19.7865 43.0105 19.7508 42.9775C18.3525 41.574 17.647 40.5792 17.3356 39.4124C17.0213 38.2344 17.0759 36.708 17.5297 34.2772C18.1547 30.8398 17.5527 28.5258 17.4756 26.2994C17.3991 24.0851 17.7342 21.7328 20.1488 17.533C21.4128 15.6607 23.1006 14.2335 25.0431 13.2528C26.9968 12.2664 29.1985 11.7318 31.4215 11.6632C31.424 11.6632 31.429 11.6632 31.4315 11.6632C31.714 11.6519 31.99 11.6509 32.2569 11.6509ZM31.2274 14.2283C25.2985 14.2283 20.4658 19.0526 20.4658 24.9801C20.4658 30.9075 25.2985 35.7441 31.2274 35.7441C37.1564 35.7441 41.9915 30.9075 41.9915 24.9801C41.9915 19.0526 37.1564 14.2283 31.2274 14.2283ZM31.2274 16.7442C35.7972 16.7442 39.4731 20.4129 39.4731 24.9801C39.4731 29.5472 35.7972 33.2257 31.2274 33.2257C26.6577 33.2257 22.9818 29.5472 22.9818 24.9801C22.9818 20.4129 26.6577 16.7442 31.2274 16.7442ZM11.9917 23.6975C11.4855 23.6492 10.9998 23.9095 10.7607 24.3584C8.33773 28.9258 6.96222 34.145 6.96222 39.6704C6.96224 48.1679 10.2056 55.9209 15.5248 61.7365C15.9931 62.2547 16.7939 62.2923 17.3086 61.8201C17.8239 61.3489 17.857 60.5484 17.3823 60.0364C12.4699 54.6654 9.47819 47.5277 9.47818 39.6703C9.47818 34.5612 10.7433 29.7529 12.9794 25.5378C13.3051 24.925 13.0731 24.1643 12.461 23.8376C12.3152 23.7605 12.1558 23.7127 11.9917 23.6975ZM36.6967 23.9208C36.0048 23.9234 35.445 24.4845 35.4436 25.1764C35.4436 27.3848 33.6766 29.1494 31.4682 29.1494C30.7734 29.1519 30.2124 29.7175 30.2152 30.4123C30.2177 31.1032 30.7773 31.6626 31.4682 31.6653C35.0363 31.6653 37.9596 28.7446 37.9596 25.1764C37.9583 24.4807 37.3924 23.9181 36.6967 23.9208ZM52.9939 26.7661C52.9003 26.7672 52.8072 26.7812 52.7162 26.8001C52.3906 26.8776 52.1095 27.0821 51.9349 27.3677C50.8719 29.1078 47.3846 29.7535 47.3846 29.7535C46.6953 29.8389 46.2059 30.4671 46.2912 31.1563C46.3756 31.8455 47.0025 32.336 47.6917 32.2521C47.6917 32.2521 52.0893 31.9475 54.0823 28.6846C54.4494 28.0894 54.2607 27.3092 53.6622 26.9476C53.4608 26.8259 53.2293 26.7631 52.9939 26.7661ZM57.3083 36.1763C57.0421 36.1725 56.7729 36.1952 56.5049 36.2549L50.8784 37.4981C47.9213 38.1523 45.1865 39.7311 43.1414 41.9649L41.1094 44.1935C39.4227 46.0358 37.1208 47.359 34.682 47.8986L31.7385 48.5497C28.7814 49.2039 26.049 50.7825 24.0039 53.0165L20.1218 57.2597C19.1334 58.3393 18.9526 59.9478 19.6845 61.2155L22.795 66.6011C23.585 67.9698 25.5632 68.1843 26.6304 67.0191L30.5125 62.7759C32.1992 60.9335 34.501 59.6005 36.9399 59.0608L39.8834 58.4123C42.8405 57.7581 45.5729 56.1792 47.618 53.9454L49.6524 51.7243C51.3391 49.882 53.6385 48.5489 56.0774 48.0094L61.6965 46.776C63.2396 46.4347 64.0371 44.6065 63.2469 43.2379L60.1462 37.8596C59.5515 36.8297 58.462 36.2051 57.3083 36.1763ZM57.1806 38.6948C57.499 38.6759 57.7973 38.8293 57.9619 39.1151L60.9914 44.3509L55.5295 45.5598C52.5723 46.2139 49.84 47.7928 47.7949 50.0266L45.7605 52.2452C44.0738 54.0875 41.7744 55.4207 39.3355 55.9602L36.392 56.6089C33.4349 57.2631 30.7001 58.8419 28.655 61.0757L24.886 65.1984L23.8811 63.4539L28.1906 58.7464C29.8773 56.9041 32.1694 55.5709 34.6083 55.0314C35.2845 54.881 35.7118 54.212 35.564 53.5351C35.4135 52.8601 34.7462 52.4331 34.0702 52.5793C31.1131 53.2336 28.3782 54.8123 26.3331 57.0461L22.5616 61.1666L21.8663 59.9627C21.6782 59.6365 21.7252 59.2377 21.9793 58.9601L25.8613 54.7145C27.5481 52.872 29.8474 51.549 32.2864 51.0094L35.2298 50.3509C38.187 49.6967 40.9193 48.1277 42.9644 45.8939L44.9988 43.6655C46.6855 41.8231 48.9874 40.4998 51.4263 39.9602L57.0429 38.7146C57.0891 38.7033 57.1351 38.6948 57.1806 38.6948ZM66.3943 39.1127C66.1975 39.109 65.9974 39.1278 65.7997 39.1694L65.3181 39.2824C64.6421 39.4317 64.2138 40.0994 64.3599 40.7763C64.5103 41.4572 65.1859 41.8859 65.866 41.7319L66.3206 41.631L69.6547 47.4075L64.2027 48.6139C61.2455 49.2681 58.5132 50.8468 56.4681 53.0807L54.4337 55.2993C52.7469 57.1417 50.4476 58.4649 48.0087 59.0044L45.0652 59.6653C42.108 60.3195 39.3733 61.8982 37.3281 64.1321L33.5591 68.2452L32.6672 66.712C32.3212 66.1095 31.5523 65.9016 30.9498 66.2475C30.3509 66.5971 30.1476 67.365 30.4953 67.9649L31.7852 70.2131C32.4159 71.3049 34.0075 71.4773 34.8589 70.5471L39.1856 65.8198C40.8723 63.9775 43.1644 62.6543 45.6033 62.1147L48.5566 61.4661C51.5137 60.8118 54.246 59.2332 56.2911 56.9993L58.3255 54.7782C60.0123 52.9359 62.3018 51.6053 64.7407 51.0656L70.9913 49.6824C72.2226 49.4099 72.8749 47.9416 72.2444 46.8495L68.4925 40.3582C68.0538 39.5982 67.2473 39.1348 66.3943 39.1127ZM57.0995 40.7121C56.9907 40.7084 56.8817 40.7159 56.7752 40.7424L53.2077 41.531C50.2505 42.1852 47.5182 43.7641 45.4731 45.9979L43.4387 48.219C42.5951 49.1402 41.595 49.9386 40.505 50.5678C39.9061 50.9174 39.7028 51.6854 40.0505 52.2853C40.3965 52.8878 41.1654 53.0957 41.7679 52.7498C43.0763 51.9944 44.2638 51.0335 45.2863 49.9169L47.3305 47.6982C49.0173 45.8559 51.3069 44.5326 53.7457 43.9931L57.3133 43.2045C57.9943 43.0544 58.423 42.3785 58.2691 41.6983C58.1455 41.1444 57.6664 40.7384 57.0995 40.7121ZM67.979 52.2846C67.4693 52.2506 66.9897 52.5284 66.7653 52.9873C61.8444 62.9792 51.5729 69.8618 39.6696 69.8618C38.9778 69.8631 38.4168 70.423 38.4141 71.1149C38.4116 71.8106 38.9739 72.3765 39.6696 72.3778C52.5427 72.3778 63.7004 64.9308 69.0331 54.1028C69.3435 53.4768 69.0843 52.7177 68.4557 52.4123C68.3068 52.3386 68.1448 52.2956 67.979 52.2846Z" fill="black"/>
</svg>
