<svg width="79" height="79" viewBox="0 0 79 79" fill="none" xmlns="http://www.w3.org/2000/svg">
<path d="M39.6715 0.333252C18.1473 0.333252 0.666626 17.8041 0.666626 39.3283C0.666626 60.8525 18.1473 78.3333 39.6715 78.3333C61.1958 78.3333 78.6666 60.8525 78.6666 39.3283C78.6666 17.8041 61.1958 0.333252 39.6715 0.333252ZM39.6715 2.84932C59.8359 2.84932 76.1505 19.1639 76.1505 39.3283C76.1505 59.4927 59.8359 75.8171 39.6715 75.8171C19.5072 75.8171 3.18275 59.4927 3.18275 39.3283C3.18275 19.1639 19.5072 2.84932 39.6715 2.84932ZM27.9976 14.6535C27.1398 14.6649 26.2711 14.8785 25.4053 15.2015C23.6735 15.8478 21.9458 16.9433 20.6802 18.2091C19.8061 19.0832 19.0301 20.1829 18.4097 21.3468C16.7199 21.9981 15.0327 23.058 13.7977 24.293C12.532 25.5588 11.4437 27.2864 10.7975 29.0181C10.4743 29.884 10.2606 30.7525 10.2495 31.6103C10.2394 32.374 10.4265 33.1837 10.9449 33.8365C10.375 34.7001 9.88465 35.6306 9.5345 36.5689C9.21136 37.4348 8.99767 38.3034 8.98655 39.1612C8.97525 40.019 9.18569 40.9477 9.86868 41.6307C10.5517 42.3137 11.4827 42.5239 12.3406 42.5128C13.0879 42.5015 13.8417 42.3212 14.5962 42.0658C13.5969 44.2737 13.0261 46.715 13.0261 49.2924C13.0261 56.0688 16.8806 61.957 22.5058 64.9026C27.2812 67.8256 32.8963 69.5197 38.9 69.5197C56.2554 69.5197 70.3467 55.4307 70.3467 38.0754C70.3467 34.8799 69.8779 31.7895 68.9903 28.8807L68.985 28.8833C68.2613 22.614 63.4541 16.7942 56.0801 16.5385C55.3952 16.5158 54.7795 16.6987 54.2396 17.0054C54.1027 16.6595 53.9495 16.3216 53.7679 16.0004C52.855 14.3855 51.2709 13.0475 49.0943 12.9965C46.1627 13.4554 44.7465 12.9988 43.4871 12.3392C42.2277 11.6796 41.0991 10.6135 39.2708 10.1401C38.3748 9.90803 37.5269 9.78403 36.7325 9.76627C35.4085 9.73603 34.2342 10.0024 33.2433 10.5476C31.658 11.4198 30.6587 12.9649 30.1338 14.962C29.4524 14.8013 28.7044 14.6448 27.9976 14.6535ZM36.1504 12.2947C36.8373 12.2471 37.6571 12.3287 38.6395 12.5823C39.7483 12.8696 40.7189 13.7328 42.3179 14.5701C43.3663 15.1192 45.2356 15.077 46.9152 15.1721C45.8195 17.2408 44.6824 19.2352 43.2099 20.17C41.324 21.3672 39.1511 21.6992 36.374 20.912C35.246 20.5919 34.0869 19.7299 33.3567 18.6638C32.6264 17.5976 32.3353 16.4023 32.622 15.3491C32.9609 14.1036 33.5615 13.2535 34.4599 12.7593C34.9091 12.5121 35.4636 12.3408 36.1504 12.2947ZM49.881 15.6413C50.5344 15.8832 51.1232 16.4316 51.5765 17.2335C52.1995 18.3357 52.4313 19.8107 52.1342 20.9021C51.5016 23.2265 49.1983 24.5517 46.9423 23.9122C45.6443 23.544 44.7106 23.0652 44.3401 22.4059C46.8048 20.8582 48.5511 18.5542 49.881 15.6413ZM28.4423 19.7128C27.9385 21.063 26.9648 22.6033 26.0196 23.5485C25.586 23.9821 25.0159 24.4158 24.4077 24.8139C24.4561 24.4692 24.4867 24.1245 24.4691 23.7818C24.4301 23.028 24.1874 22.2274 23.587 21.627C23.0747 21.1148 22.424 20.8682 21.7687 20.7817C21.9981 20.4903 22.2298 20.215 22.4616 19.9832C23.4067 19.038 24.9372 18.0643 26.2874 17.5604C26.9625 17.3083 27.8999 16.8739 28.7353 17.2724C29.1283 18.1126 28.6942 19.0377 28.4423 19.7128ZM55.9871 19.0543C62.6177 19.2841 66.575 24.8668 66.575 30.5244C66.575 35.9606 61.6792 41.5959 55.9502 41.9747C55.4111 42.0129 54.7634 41.2924 54.7634 40.5716V20.4745C54.7634 19.7526 55.408 19.0342 55.9871 19.0543ZM33.9415 22.5459C33.1083 23.0856 32.4384 23.8451 31.9733 24.728C31.1976 26.2003 31.3124 27.8831 31.897 29.2982C32.3287 30.3429 33.016 31.2839 33.8947 31.9986C32.8398 31.8009 31.7555 31.6841 30.6439 31.6841C27.8568 31.6841 25.2295 32.3531 22.8842 33.5098C23.0688 32.8838 23.2054 32.2576 23.2134 31.6374C23.2235 30.8734 23.0371 30.07 22.5181 29.4187C22.766 29.043 22.9968 28.6537 23.2085 28.2564C24.8939 27.6063 26.5624 26.5537 27.7936 25.3226C29.0593 24.0569 30.1549 22.3268 31.0383 20.3407C31.9654 21.0937 32.8907 21.929 33.9415 22.5459ZM58.9406 23.1602C58.622 23.1754 58.3199 23.3049 58.0953 23.531L57.2058 24.4131C56.7114 24.9049 56.7114 25.7052 57.2058 26.1971C57.6974 26.6899 58.4957 26.6899 58.9873 26.1971L59.8792 25.305C60.3671 24.8143 60.3671 24.0217 59.8792 23.531C59.6318 23.2819 59.2915 23.1473 58.9406 23.1602ZM21.7294 25.3226C21.4422 26.2691 20.8742 27.3633 20.2158 28.308C20.0974 28.2966 19.9785 28.2854 19.8619 28.2854C19.0041 28.2967 18.138 28.5102 17.2721 28.8332C15.6335 29.4448 14.0092 30.4646 12.7657 31.6442C12.7719 31.2082 12.9048 30.5761 13.1564 29.9021C13.6602 28.5519 14.6364 27.0191 15.5816 26.0739C16.5267 25.1288 18.0572 24.1451 19.4074 23.6412C20.0825 23.3891 20.7159 23.1154 21.5512 23.4353C21.9681 24.0999 21.901 24.7568 21.7294 25.3226ZM36.4871 24.2685C37.1319 24.2303 37.9555 24.3943 39.0106 24.9245C39.7621 25.3021 40.359 26.1108 41.4923 27.0499C42.1476 27.5929 43.5408 27.8061 44.6399 28.1753C43.556 29.3549 42.4671 30.617 41.3252 31.0255C39.7225 31.5989 38.0586 31.5025 36.0767 30.4507C35.3106 30.0441 34.5851 29.2181 34.2191 28.3325C33.8532 27.4469 33.8393 26.5769 34.192 25.9073C34.6389 25.0593 35.1918 24.5713 35.8998 24.3667C36.0768 24.3153 36.2721 24.2813 36.4871 24.2685ZM52.2546 25.0719V40.5716C52.2546 42.649 53.8707 44.6298 56.1173 44.481C61.2683 44.1405 65.666 40.676 67.7667 36.2175C67.8061 36.8322 67.8378 37.4504 67.8378 38.0751C67.8378 54.0707 54.8955 67.0033 38.8999 67.0033C37.2323 67.0033 35.6045 66.848 34.0151 66.5782C42.1182 64.9995 48.2519 57.8511 48.2519 49.2921C48.2519 44.5252 46.3417 40.2037 43.2565 37.0308C45.87 38.0283 48.9034 36.9504 50.2397 34.4141C50.9967 32.9771 51.0456 31.287 50.5739 29.7896C50.1218 28.3547 49.0747 27.0053 47.4091 26.5511C49.1414 26.7249 50.8932 26.165 52.2546 25.0719ZM59.174 29.2614C58.4753 29.2586 57.9083 29.8257 57.911 30.5244C57.9135 31.2192 58.4792 31.7802 59.174 31.7774H60.4272C61.122 31.7802 61.6874 31.2192 61.6901 30.5244C61.6926 29.8257 61.1258 29.2586 60.4272 29.2614H59.174ZM47.3821 29.3041C47.7172 29.5781 47.9913 29.9903 48.1684 30.5523C48.4473 31.4377 48.3825 32.5403 48.0112 33.2453C47.199 34.7869 45.3368 35.3584 43.8045 34.5452C43.0737 34.1572 42.5429 33.7643 42.1828 33.3928C44.1577 32.6848 45.8748 31.2311 47.3821 29.3041ZM11.8934 37.4519C12.3972 36.1017 13.3734 34.5714 14.3186 33.6262C15.2638 32.681 16.804 31.6975 18.1542 31.1936C18.8293 30.9415 19.6037 30.507 20.444 30.9056C20.8431 31.7459 20.5586 32.6734 20.3067 33.3485C19.8028 34.6987 18.8291 36.239 17.8839 37.1842C16.9387 38.1294 15.3985 39.1031 14.0483 39.607C13.3732 39.8591 12.6718 40.1428 11.8315 39.7491C11.4323 38.9137 11.6414 38.127 11.8934 37.4519ZM30.644 34.2011C38.9966 34.2011 45.7456 40.9404 45.7456 49.2931C45.7456 57.6456 38.9966 64.3947 30.644 64.3947C28.1676 64.3947 25.8389 63.7884 23.7787 62.7362C23.6263 62.6424 23.4672 62.5597 23.3167 62.4633L23.2995 62.4935C18.6707 59.9165 15.5447 54.9799 15.5447 49.2961C15.5447 45.3023 17.098 41.6889 19.7919 38.8065C22.6937 35.8911 26.4676 34.2011 30.644 34.2011ZM58.0584 34.4812C57.7373 34.4925 57.4322 34.6245 57.2058 34.852C56.7179 35.3427 56.7179 36.1353 57.2058 36.6261L58.0953 37.518C58.5872 38.0125 59.3874 38.0125 59.8792 37.518C60.3671 37.0273 60.3671 36.2346 59.8792 35.7439L58.9873 34.8511C58.7422 34.6043 58.406 34.4711 58.0584 34.4812ZM33.1601 43.0051C28.3113 43.0051 24.3561 46.9604 24.3561 51.8091C24.3561 56.658 28.3113 60.6131 33.1601 60.6131C38.0088 60.6131 41.9641 56.658 41.9641 51.8091C41.9641 46.9604 38.0088 43.0051 33.1601 43.0051ZM63.5207 44.418C63.2001 44.4218 62.8942 44.554 62.6656 44.7793L60.8817 46.5631C60.3938 47.0539 60.3938 47.8466 60.8817 48.3373C61.3736 48.8318 62.1738 48.8318 62.6656 48.3373L64.4495 46.5631C64.944 46.0713 64.944 45.2711 64.4495 44.7793C64.2028 44.5362 63.8668 44.4055 63.5207 44.418ZM33.1601 45.5237C36.649 45.5237 39.4479 48.3202 39.4479 51.8091C39.4479 55.2981 36.649 58.097 33.1601 58.097C29.6711 58.097 26.8747 55.2981 26.8747 51.8091C26.8747 48.3202 29.6711 45.5237 33.1601 45.5237ZM52.0139 46.6466C51.6932 46.6504 51.3873 46.783 51.1588 47.0079C50.6643 47.4997 50.6643 48.3 51.1588 48.7919L52.9427 50.5659C53.4334 51.0538 54.226 51.0538 54.7167 50.5659C55.2046 50.0752 55.2046 49.2826 54.7167 48.7919L52.9427 47.0079C52.696 46.7649 52.36 46.6342 52.0139 46.6466ZM58.0216 49.9981C57.3229 49.9954 56.7559 50.5625 56.7586 51.2611V53.7797C56.7611 54.4746 57.3268 55.0357 58.0216 55.0329C58.7126 55.0303 59.2721 54.4707 59.2747 53.7797V51.2611C59.2773 50.5663 58.7164 50.0009 58.0216 49.9981ZM50.7312 53.3694C50.0354 53.3666 49.4696 53.9292 49.4682 54.625C49.4657 55.3236 50.0326 55.8907 50.7312 55.888H53.2473C53.9431 55.8866 54.5057 55.3207 54.5029 54.625C54.5017 53.9321 53.9402 53.3707 53.2473 53.3694H50.7312ZM49.4314 58.8022C49.109 58.8135 48.8029 58.9461 48.5763 59.1756L46.7948 60.9498C46.302 61.4413 46.302 62.2395 46.7948 62.7311C47.2864 63.2239 48.0847 63.2239 48.5763 62.7311L50.3602 60.9498C50.8481 60.4591 50.8481 59.6663 50.3602 59.1756C50.1156 58.928 49.7793 58.7929 49.4314 58.8022Z" fill="black"/>
</svg>
