<svg width="75" height="58" viewBox="0 0 75 58" fill="none" xmlns="http://www.w3.org/2000/svg">
<path d="M9.18009 0.00280762C4.56971 0.00280762 0.813843 3.75863 0.813843 8.36898V48.9641C0.813843 53.5745 4.56971 57.3304 9.18009 57.3304H66.496C71.1064 57.3304 74.8529 53.5745 74.8529 48.9641V8.36898C74.8529 3.75863 71.1064 0.00280762 66.496 0.00280762H9.18009ZM9.18009 2.39352H66.496C69.8245 2.39352 72.4645 5.04044 72.4645 8.36898V48.9641C72.4645 52.2927 69.8245 54.9397 66.496 54.9397H9.18009C5.85154 54.9397 3.2022 52.2927 3.2022 48.9641V8.36898C3.2022 5.04044 5.85154 2.39352 9.18009 2.39352ZM52.3454 4.49957C50.7366 4.51033 44.0284 4.61549 39.6713 5.70784C39.0311 5.86641 38.6406 6.51371 38.799 7.15392C38.9573 7.79757 39.6095 8.1891 40.2521 8.02618C41.279 7.76859 42.5174 7.56927 43.8066 7.41504V14.979C43.5211 15.0153 43.236 15.049 42.9506 15.0863C42.295 15.1713 41.8329 15.772 41.9197 16.4274C42.0044 17.0819 42.604 17.5436 43.2585 17.4583C46.3961 17.0462 49.5002 16.7749 52.6463 16.7703C52.6463 16.7703 55.0198 16.8703 57.9105 17.1222C60.5092 17.3489 63.5518 17.7105 65.5001 18.1718C65.5821 18.5238 65.6546 19.0251 65.5793 19.5572C65.4645 20.3693 65.1473 21.2455 63.6738 21.9525C63.2816 20.854 62.0701 20.0363 60.9681 19.8371C60.3154 19.7338 59.7029 20.18 59.6013 20.8329C59.498 21.4864 59.9457 22.0993 60.5996 22.1998C61.1845 22.3637 61.475 22.8565 61.6095 23.3169C60.8121 24.5198 59.5505 24.7172 58.3325 24.8541C57.6531 24.8649 57.0047 24.7791 56.5015 24.6862C56.7826 24.0785 56.94 23.4037 56.94 22.6943C56.9376 22.0384 56.4064 21.5074 55.7505 21.5049C55.091 21.5025 54.5542 22.0348 54.5517 22.6943C54.5517 24.025 53.5011 25.0794 52.1703 25.0827C50.8396 25.0863 49.7887 24.0413 49.782 22.7106C49.7796 22.0474 49.2369 21.5134 48.5738 21.5212C47.9179 21.5319 47.391 22.0641 47.3936 22.72C47.3972 23.4696 47.5752 24.1803 47.8904 24.8122C47.6012 24.8445 47.2934 24.8577 46.9784 24.8527C46.2682 24.8419 45.5547 24.7192 44.9866 24.4469C44.4922 24.2098 44.0951 23.8883 43.7877 23.3298C43.8093 23.2067 43.8486 23.0445 43.9207 22.8772C44.0694 22.5325 44.1855 22.2943 44.793 22.1986C45.446 22.097 45.8923 21.4844 45.7889 20.8317C45.6873 20.1788 45.0748 19.7325 44.4222 19.8359C42.9857 20.0626 42.0884 21.095 41.7259 21.935C41.3635 22.7751 41.3714 23.5489 41.3714 23.5489C41.6414 24.8664 42.8994 26.0755 43.9557 26.5974C44.9557 27.0764 46.0078 27.2229 46.9528 27.2342C48.1699 27.2485 49.2602 27.035 49.8846 26.8822C50.5678 27.2577 51.3498 27.4721 52.1797 27.47C53.1252 27.4688 54.0073 27.1873 54.7499 26.7049L54.8059 26.7336C54.8059 26.7336 56.4339 27.2576 58.3605 27.2351C60.5687 27.1389 62.6075 26.321 63.669 24.5319C66.4753 23.517 67.7068 21.5553 67.9419 19.8928C68.019 19.3473 68.0084 18.8348 67.9581 18.3861C68.2402 18.3111 68.5105 18.1934 68.7604 18.0246C69.5336 17.5028 69.9522 16.5478 69.9522 15.5732C69.9487 15.2216 69.7895 14.8898 69.5184 14.6659L66.7242 12.3125L69.0076 11.7995C69.557 11.6822 69.9503 11.1974 69.9522 10.6355C69.9522 9.67115 69.636 8.73775 69.1219 7.92064C68.6078 7.10353 67.8777 6.38 66.8828 6.04308C66.8792 6.04308 66.8771 6.04308 66.8735 6.04308C61.9164 4.74685 57.3818 4.52335 52.3454 4.49957ZM21.74 5.10841C20.14 5.10841 18.7641 6.15435 18.2694 7.5947C16.4054 7.65964 12.2767 7.93764 8.79058 9.11775C7.79562 9.45462 7.06564 10.1782 6.5515 10.9953C6.03736 11.8124 5.7235 12.7481 5.7235 13.7125V18.6479C5.7235 19.6225 6.13982 20.5774 6.91301 21.0992C7.16139 21.2668 7.43043 21.3837 7.71069 21.4584C7.65934 21.9084 7.64752 22.4219 7.72468 22.9675C7.95993 24.631 9.19243 26.5861 12.0023 27.5995C12.5662 28.5809 13.3885 29.2735 14.2647 29.6848C16.1281 30.4659 17.9023 30.3452 19.7971 30.0697C20.2195 30.61 20.874 30.963 21.6 30.963H24.3499C25.0759 30.963 25.7304 30.61 26.1528 30.0697C28.033 30.3901 30.0737 30.4199 31.6852 29.6848C32.5617 29.2732 33.386 28.5791 33.95 27.5972C36.7532 26.5827 37.9903 24.6289 38.2252 22.9675C38.3023 22.4219 38.2907 21.9084 38.2392 21.4584C38.5195 21.3831 38.7885 21.2673 39.0369 21.0992C39.8101 20.5774 40.2264 19.6225 40.2264 18.6479V13.7102C40.2264 12.7458 39.9125 11.8124 39.3984 10.9953C38.8843 10.1782 38.1543 9.45462 37.1593 9.11775C33.6732 7.93771 29.5445 7.65975 27.6805 7.5947C27.1858 6.15435 25.8099 5.10841 24.2099 5.10841H21.74ZM58.1391 7.09326V14.7457L53.3624 14.4121L53.3624 6.89718L58.1391 7.09326ZM50.9717 6.92531V14.4099C49.3674 14.4566 47.7777 14.5646 46.195 14.7178V7.17954C48.0212 7.0328 49.751 6.96119 50.9717 6.92531ZM60.5274 7.29132C62.6522 7.50945 64.7576 7.8383 66.1182 8.29891C66.4134 8.399 66.8034 8.72545 67.0954 9.1899C67.2074 9.36784 67.1994 9.5496 67.2726 9.74498L63.8604 10.4938C62.8898 10.7018 62.5817 11.934 63.3402 12.5742L67.4312 16.0214C67.1835 16.1689 66.9547 16.1144 66.7686 16.0394C65.0981 15.5591 62.7994 15.2222 60.5272 14.9758L60.5274 7.29132ZM21.74 7.4966H24.2099C24.9375 7.4966 25.4881 8.03786 25.4881 8.76542V18.6476C25.4881 19.3752 24.9375 19.9259 24.2099 19.9259H21.74C21.0124 19.9259 20.4618 19.3752 20.4618 18.6476V8.76542C20.4618 8.03786 21.0124 7.4966 21.74 7.4966ZM18.0735 17.5515C16.1534 17.7316 12.1047 18.1923 8.89787 19.1141C8.49008 19.2315 8.30932 19.1504 8.25414 19.1141C8.19896 19.0779 8.11186 19.0374 8.11186 18.6476V16.2406C8.86 16.0533 9.65512 15.8836 10.4489 15.7392C11.0955 15.6208 11.5251 15.0009 11.4098 14.3537C11.2917 13.7031 10.6677 13.2722 10.0174 13.3928C9.38124 13.5087 8.7398 13.6371 8.11186 13.78C8.10947 13.2009 8.36102 12.6561 8.57135 12.2664C8.86341 11.8023 9.26279 11.4753 9.55794 11.3754C12.4737 10.3884 16.1974 10.0929 18.0735 10.004V17.5515ZM27.8764 10.0039C29.7525 10.0929 33.4762 10.3889 36.392 11.3753C36.6871 11.4751 37.0865 11.8023 37.3786 12.2663C37.702 12.7389 37.7978 13.2868 37.838 13.7799C37.2063 13.6364 36.5632 13.5087 35.9255 13.3927C35.2783 13.2775 34.6583 13.707 34.5401 14.3536C34.4248 15.0008 34.8544 15.6209 35.501 15.7392C36.2948 15.8834 37.0899 16.0527 37.838 16.2406V18.6475C37.838 19.037 37.751 19.0768 37.6958 19.1141C37.6406 19.1504 37.4598 19.2315 37.052 19.1141C33.8452 18.1921 29.7965 17.7315 27.8764 17.5515L27.8764 10.0039ZM27.6409 19.9305C29.3746 20.0994 32.9425 20.51 35.7762 21.2413C35.859 21.594 35.9289 22.0982 35.8531 22.6338C35.2328 24.0071 34.9415 24.5296 33.9497 25.0034C33.5872 24.1634 32.6806 23.1401 31.2441 22.9136C30.5948 22.816 29.9884 23.2605 29.8867 23.9095C29.783 24.559 30.2241 25.1701 30.8733 25.2763C31.3359 25.3954 31.6231 25.8252 31.8855 26.3958C31.5801 26.9548 31.1821 27.2751 30.6704 27.5154C29.3061 28.0629 28.0316 27.9193 26.6423 27.7274V21.3786C27.082 20.9855 27.4288 20.4898 27.6409 19.9305ZM18.309 19.9329C18.5212 20.4914 18.8682 20.9865 19.3073 21.379V27.7278C17.8909 28.056 16.5789 27.882 15.2793 27.5157C14.7704 27.2767 14.3682 26.9589 14.0618 26.4055C14.0834 26.2828 14.1231 26.121 14.1947 25.9555C14.3434 25.6108 14.4688 25.3725 15.0763 25.2767C15.7255 25.1705 16.1666 24.5595 16.0629 23.9099C15.9613 23.258 15.3503 22.8121 14.6985 22.914C13.262 23.1408 12.3624 24.1638 11.9999 25.0039C11.9964 25.0146 11.994 25.0182 11.9904 25.0253C10.5248 24.3191 10.2111 23.4428 10.0965 22.6323C10.0208 22.0968 10.0905 21.5947 10.1734 21.2422C12.8852 20.7001 15.5971 20.2105 18.309 19.9329ZM24.2542 22.3143V28.5743H21.6956L21.6956 22.3143H24.2542ZM9.1521 33.4397C7.18851 33.4852 5.59056 35.1045 5.59056 37.0549C5.59056 39.0052 7.21413 40.561 9.14277 40.6071C9.14635 40.6071 60.502 41.806 60.502 41.806C61.9089 41.8383 63.185 41.4651 64.0636 40.5815C64.9421 39.6979 65.3067 38.4364 65.3067 37.0549C65.3067 35.6498 64.942 34.3778 64.0636 33.484C63.24 32.646 62.0659 32.2651 60.7632 32.2478L9.1521 33.4397ZM60.5554 34.6384C61.5369 34.6169 62.045 34.8376 62.3607 35.1586C62.6764 35.48 62.9181 36.0432 62.9181 37.0548C62.9181 38.0334 62.6763 38.58 62.3607 38.8974C62.0451 39.2145 61.5368 39.4404 60.5554 39.4176L9.20575 38.2188C8.48921 38.2009 7.98125 37.6953 7.98125 37.055C7.98125 36.4147 8.52408 35.8439 9.20575 35.8281L60.5554 34.6384ZM14.9107 42.9674C13.6081 42.9853 12.4363 43.3655 11.6128 44.2036C10.7343 45.0974 10.3696 46.3694 10.3696 47.7744C10.3696 49.1559 10.7342 50.4151 11.6128 51.2987C12.4913 52.1823 13.7674 52.5582 15.1743 52.5255L66.5217 51.3267C68.4503 51.2807 70.0762 49.7248 70.0762 47.7744C70.0762 45.8241 68.4853 44.205 66.5217 44.1593L14.9107 42.9674ZM15.1207 45.3581L66.4703 46.5476C67.152 46.5656 67.6948 47.1341 67.6948 47.7744C67.6948 48.4147 67.1869 48.9212 66.4703 48.9384L15.1207 50.1371C14.1392 50.1586 13.6194 49.9345 13.3037 49.6171C12.9881 49.2999 12.7579 48.753 12.758 47.7744C12.7579 46.7628 12.9974 46.1995 13.3131 45.8783C13.6288 45.5568 14.1392 45.3353 15.1207 45.3581Z" fill="black"/>
</svg>
