<svg width="79" height="66" viewBox="0 0 79 66" fill="none" xmlns="http://www.w3.org/2000/svg">
<path d="M10.0368 7.97851C4.23022 12.6108 0.0895202 20.219 0.768182 27.7884L0.699436 27.7909C0.811914 32.4422 0.406069 37.26 0.996431 42.1405C0.998944 42.1556 1.00271 42.1746 1.00648 42.1893C2.14736 49.3663 8.80591 53.9719 15.4567 54.9507C21.179 56.1454 26.5709 54.3371 31.3012 56.0406C34.8827 56.8848 37.4621 59.932 41.0509 62.1821C51.1362 68.1364 64.9582 65.7859 72.4723 56.7941C77.1914 51.5418 79.0108 44.4331 78.6137 37.6555C78.6175 34.5918 78.619 31.5002 78.619 28.4066C78.6338 27.5668 78.6137 26.7233 78.5356 25.8783C78.096 16.9603 71.5636 9.73233 63.8963 6.20962C55.6858 2.42571 46.638 0.672268 37.6541 0.544369C36.3707 0.525472 35.0884 0.541682 33.7869 0.593159C25.705 1.19871 16.7681 2.3105 10.0368 7.97851ZM33.9299 3.10242C35.1649 3.05972 36.405 3.04494 37.6437 3.06459C46.3151 3.19121 55.0146 4.8843 62.8476 8.4942C69.8239 11.6994 75.6543 18.2587 76.0313 26.0103C76.0338 26.0292 76.0373 26.0484 76.0411 26.0669C76.0954 26.6328 76.1141 27.1978 76.1197 27.763H76.105V28.4995C75.8492 37.9964 68.9351 47.0627 59.6935 49.5182C59.6874 49.5215 59.6821 49.522 59.6764 49.5295C52.3728 51.6281 43.8187 49.8137 38.3705 44.4042C33.287 40.2998 26.7271 39.609 20.7489 40.3346C17.4784 40.3773 13.952 39.7792 10.9697 38.3979C7.97634 37.0115 5.55292 34.8761 4.26128 31.773C1.19768 24.0424 5.27318 14.9778 11.6423 9.91591C17.6563 4.84975 25.9738 3.69619 33.9299 3.10242ZM34.654 6.39659C34.2648 6.39281 33.895 6.56548 33.6525 6.87007L26.76 15.4808L22.7418 12.8815C22.5106 12.7337 22.2373 12.6653 21.9637 12.6876C21.5751 12.7178 21.2224 12.9261 21.0089 13.2522C20.6264 13.8359 20.7928 14.6195 21.3795 14.9974L25.1817 17.457L21.9686 21.4702L16.4629 17.9085C16.2315 17.7604 15.9565 17.6923 15.6824 17.7146C15.2933 17.7449 14.9409 17.9547 14.7275 18.2817C14.3459 18.8653 14.512 19.6467 15.0982 20.0245L20.3878 23.4461L13.5395 32.0029C13.1031 32.5448 13.19 33.3381 13.7334 33.7727C14.2757 34.2106 15.0709 34.1238 15.5056 33.5788L22.5086 24.8207L28.3359 28.591L23.596 34.5165C23.1579 35.0588 23.245 35.854 23.7899 36.2887C24.3313 36.7195 25.1191 36.6315 25.5523 36.0925L30.4566 29.9634L35.9918 33.5448C35.7661 34.0659 35.9181 34.6736 36.3624 35.0272C36.9038 35.458 37.6916 35.37 38.1248 34.8311C39.7081 32.8521 41.2908 30.8725 42.8745 28.8935C43.445 29.1724 44.1338 28.9815 44.4798 28.4493C44.7768 27.9947 44.7481 27.4004 44.4087 26.9765C45.4931 25.6216 46.5768 24.2666 47.6611 22.9117L49.0332 23.7928C49.6174 24.1662 50.3943 23.9962 50.7686 23.4124C51.1421 22.8283 50.9718 22.0513 50.3881 21.677L49.2394 20.9381C50.5622 19.285 51.886 17.6328 53.2085 15.9798C53.6376 15.4365 53.5465 14.6485 53.0048 14.2175C52.7913 14.0455 52.5276 13.948 52.2537 13.9401C51.8611 13.9287 51.4869 14.1067 51.2423 14.4136C49.8665 16.1334 48.4899 17.8533 47.1137 19.5731L41.6031 16.0287L45.6655 10.9526C46.0969 10.4119 46.0102 9.62418 45.4716 9.19018C45.2559 9.01556 44.9883 8.9169 44.7107 8.91047C44.3181 8.89913 43.9439 9.07717 43.6994 9.38407L39.4775 14.6614L33.6355 10.9059L35.609 8.43907C36.042 7.89795 35.9553 7.10841 35.4151 6.67422C35.199 6.50036 34.9313 6.40264 34.654 6.39659ZM25.3339 8.82166C23.563 8.74758 23.8112 11.6778 25.5376 11.318C27.0324 11.0905 26.8474 8.80669 25.3339 8.82166ZM58.9227 11.2321C57.1518 11.158 57.4 14.0882 59.1264 13.7284C60.6212 13.5009 60.4362 11.2171 58.9227 11.2321ZM32.057 12.8816L37.899 16.6371L34.7105 20.6235L28.8808 16.8532L32.057 12.8816ZM68.1103 17.4078C66.3394 17.3338 66.5876 20.264 68.314 19.9042C69.8088 19.6767 69.6238 17.3929 68.1103 17.4078ZM40.0247 18.0018L45.5353 21.5439C44.4663 22.8797 43.3986 24.2165 42.3296 25.5522L36.8313 21.9956L40.0247 18.0018ZM27.3 18.8291L33.1297 22.5994L29.9166 26.6151L24.0894 22.8448L27.3 18.8291ZM10.4221 19.3667C8.65126 19.2926 8.8995 22.2227 10.6259 21.8629C12.1207 21.6354 11.9356 19.3517 10.4221 19.3667ZM59.6124 21.4899C59.13 21.505 58.6411 21.5753 58.1544 21.7132C53.2208 22.8315 51.8464 29.7869 55.9649 32.7172C59.8646 35.9344 66.2316 32.7966 66.0214 27.7344C66.0623 24.1851 62.9895 21.3933 59.6124 21.4899ZM35.2505 23.9715L40.7463 27.5282C39.6752 28.8667 38.6042 30.2054 37.5333 31.5439L32.0374 27.9872L35.2505 23.9715ZM63.5349 27.7344C63.5337 27.7684 63.5337 27.7968 63.5349 27.8274C63.6806 30.7118 59.7229 32.6639 57.472 30.7582C55.038 29.0811 55.8963 24.7451 59.1927 24.0608C61.6596 23.9425 63.5822 25.6678 63.5349 27.7344ZM71.7259 25.8419C69.955 25.7678 70.2033 28.698 71.9296 28.3382C73.4244 28.1107 73.2394 25.8269 71.7259 25.8419ZM67.8084 33.8268C66.0375 33.7531 66.2857 36.6829 68.0121 36.3231C69.5069 36.0956 69.3218 33.8118 67.8084 33.8268ZM36.6962 46.2703C42.7727 52.3151 52.1839 54.2868 60.3439 51.9491C67.3147 50.097 73.0247 45.0132 76.1197 38.6574C76.2843 44.6365 74.5817 50.698 70.5845 55.14C63.9089 63.1637 51.2992 65.3132 42.3443 60.0272C39.2648 58.0879 36.4573 54.7195 31.9908 53.6452C26.3019 51.6317 20.7215 53.5118 15.864 52.4768C10.0662 51.6275 4.41837 47.612 3.4928 41.7895C3.23031 39.5946 3.18685 37.3546 3.19579 35.0835C4.86747 37.6039 7.25252 39.4435 9.9116 40.6751C13.3357 42.2609 17.2167 42.8984 20.8923 42.8425C26.5549 42.1445 32.4177 42.8236 36.6962 46.2703ZM62.5874 35.3977C61.9736 35.3788 61.4381 35.8067 61.3184 36.4089L60.6017 40.1253C58.9073 40.6891 57.1491 41.021 55.4125 41.085C55.813 40.5654 56.2123 40.0455 56.6129 39.5263C57.0378 38.978 56.9399 38.1894 56.3919 37.764C56.1736 37.5962 55.9062 37.5047 55.631 37.5035C55.2386 37.502 54.8684 37.6831 54.6295 37.9944C53.8802 38.9657 53.1303 39.9337 52.3811 40.9031C50.1398 40.525 48.0199 39.597 46.2225 37.9772C45.9646 37.7459 45.6227 37.6314 45.2775 37.6605C44.9575 37.6832 44.6589 37.8307 44.4429 38.0681C43.9797 38.583 44.0203 39.3754 44.5338 39.8402C48.1065 43.0598 52.6341 43.9958 57.0547 43.478L59.1731 46.0381C59.6157 46.5745 60.4102 46.6491 60.9453 46.2048C61.4816 45.7621 61.5564 44.9678 61.1122 44.4327L59.8849 42.95C61.7098 42.4817 63.4778 41.7901 65.1034 40.925C65.7193 40.5981 65.9517 39.8329 65.6213 39.219C65.2956 38.6022 64.5299 38.3687 63.9153 38.6987C63.7415 38.7913 63.5618 38.876 63.3851 38.9636L63.7852 36.8894C63.9187 36.208 63.4727 35.5472 62.7911 35.4142C62.7238 35.4029 62.6559 35.3977 62.5874 35.3977ZM34.9731 36.6863C33.2022 36.6126 33.4505 39.5449 35.1769 39.1851C36.6717 38.9576 36.4866 36.6714 34.9731 36.6863ZM45.2162 43.6156C43.4453 43.5419 43.6935 46.4717 45.4199 46.112C46.9147 45.8844 46.7296 43.6007 45.2162 43.6156ZM24.8356 46.6446C23.2255 46.6559 21.6079 46.8688 20.0148 47.3467C19.3474 47.5451 18.9687 48.2488 19.1704 48.9152C19.3732 49.5787 20.0753 49.9521 20.7389 49.7497C24.3047 48.6801 28.2227 49.183 31.9 50.3511C32.56 50.5598 33.2646 50.1955 33.4758 49.5362C33.691 48.8731 33.3253 48.1616 32.6609 47.9505C30.1813 47.1628 27.5191 46.6251 24.8356 46.6446ZM37.494 50.4542C37.1032 50.4731 36.743 50.6707 36.5195 50.9917C36.1178 51.5607 36.2554 52.3479 36.8263 52.7469C39.5739 54.6626 42.5144 57.1217 46.3355 57.9138C47.0137 58.0528 47.6766 57.6171 47.8181 56.9394C47.9582 56.2579 47.5182 55.5922 46.8362 55.4543C43.8064 54.8262 41.1244 52.6732 38.2623 50.6775C38.0374 50.5211 37.7676 50.4429 37.494 50.4542Z" fill="black"/>
</svg>
