<svg width="79" height="70" viewBox="0 0 79 70" fill="none" xmlns="http://www.w3.org/2000/svg">
<path d="M22.9706 1.16876C22.7537 1.82779 23.111 2.53806 23.7694 2.75667C25.6678 3.58613 26.3312 4.77989 26.7486 6.4535C25.183 7.03672 23.9218 8.21197 23.2926 9.70787C16.389 11.6385 9.72752 14.8513 3.38764 19.2008C2.98371 19.4778 2.65019 19.7757 2.3946 20.1839C2.15238 20.5706 2.0026 21.1054 2.10456 21.639C1.2447 22.2942 0.666616 23.3094 0.666626 24.4756V29.8661C0.666649 31.3389 1.21489 32.702 2.12668 33.7496C1.25455 34.4065 0.666638 35.4347 0.666626 36.6107V41.9987C0.666649 43.4703 1.2138 44.8326 2.12423 45.8799C1.2534 46.5344 0.666629 47.5587 0.666626 48.7337V54.1315C0.666672 57.0685 2.83994 59.5686 5.74733 59.9841C30.9859 63.5926 50.318 66.3536 73.2221 69.6268C76.0704 70.0341 78.6666 67.7846 78.6666 64.9074V59.5195C78.6666 58.2181 78.0758 57.0374 77.1451 56.2306C78.0678 55.3666 78.6666 54.1533 78.6666 52.7844V47.3868C78.6666 46.086 78.0775 44.9047 77.1476 44.0979C78.0682 43.2319 78.6666 42.0189 78.6666 40.6518V35.2539C78.6666 33.7978 77.9263 32.4967 76.7961 31.6997C76.8505 31.0674 76.6131 30.3688 76.0562 29.9398L48.3889 8.60913C48.2232 8.48364 48.029 8.4005 47.8235 8.36875C42.8506 7.54735 38.0659 7.41247 33.3704 7.85017C32.3108 6.80136 30.8495 6.14427 29.2434 6.07299C28.7262 3.42675 26.8266 0.950178 24.5609 0.370361C23.74 0.171179 23.1614 0.667328 22.9706 1.16876ZM29.4597 8.60913C31.2513 8.83061 32.5593 10.2084 32.5593 11.8415C32.5593 13.6237 31.0084 15.1302 28.9632 15.1302C26.918 15.1302 25.3696 13.6237 25.3696 11.8415C25.3622 10.6859 26.0131 9.55815 26.933 9.12747C26.8498 10.2072 27.3374 10.8652 28.2111 10.9047C28.9033 10.9022 29.4634 10.3407 29.4647 9.64859L29.4597 8.60913ZM53.2926 27.8407L27.7195 24.188C26.8178 24.0822 26.2803 24.7772 26.2791 25.5399V32.56C26.2791 34.113 25.0446 35.3474 23.4917 35.3474C21.9387 35.3474 20.7043 34.113 20.7043 32.56V28.519C20.6679 26.8778 18.2237 26.8778 18.1873 28.519C18.1873 31.2684 17.1321 32.5996 15.4098 32.6509C13.8568 32.6509 12.6224 31.419 12.6224 29.8661V23.1999C12.6462 22.4757 12.1686 21.9989 11.4229 21.8677L5.39583 21.0024C11.0291 17.2094 16.8609 14.2867 22.8846 12.4559C23.2111 15.3973 25.8579 17.6497 28.9632 17.6497C32.2812 17.6497 35.0763 15.0774 35.0763 11.8415C35.0763 11.2897 34.9695 10.7691 34.8182 10.2659C36.5225 10.1487 38.2369 10.089 39.9751 10.1434C42.3301 10.2167 44.7204 10.4473 47.1623 10.839L72.8535 30.6407C69.0364 30.0981 65.2203 29.5489 61.404 29.0012C60.6971 28.9306 60.0072 29.4236 59.9735 30.336V35.9328C59.9735 37.4858 58.739 38.7178 57.1861 38.7178C55.6332 38.7178 54.4012 37.4859 54.4012 35.9328V29.3281C54.4148 28.8226 54.2415 27.9627 53.2926 27.8407ZM41.9046 13.1343L40.5576 15.8284C40.2457 16.452 40.5003 17.2103 41.1254 17.5194C41.7491 17.8316 42.5075 17.5761 42.8166 16.9516L44.1635 14.2577C44.4755 13.634 44.2209 12.8756 43.5957 12.5665C42.8129 12.2505 42.1833 12.5892 41.9046 13.1343ZM47.8604 15.2606C47.239 15.5731 46.9891 16.3306 47.3024 16.9516L48.6494 19.6456C48.9585 20.2706 49.7169 20.5254 50.3405 20.2135C50.9619 19.9009 51.2118 19.1434 50.8985 18.5223L49.5515 15.8284C49.1894 15.2105 48.482 15.0257 47.8604 15.2606ZM31.5835 19.0852C30.8349 19.0816 30.2268 19.6885 30.2291 20.4371C30.2309 21.1828 30.8378 21.7853 31.5835 21.7816C32.3243 21.7784 32.9237 21.178 32.9255 20.4371C32.9278 19.6933 32.3272 19.0883 31.5835 19.0852ZM15.6236 20.5477C15.318 21.1682 15.5705 21.9192 16.1889 22.2291L18.8829 23.5759C19.504 23.8892 20.2614 23.639 20.574 23.018C20.8863 22.395 20.6329 21.6368 20.0087 21.3269L17.3147 19.9799C16.5318 19.6639 15.9465 20.0177 15.6236 20.5477ZM39.8891 21.2164C39.5758 21.8373 39.8257 22.5948 40.447 22.9074L43.1509 24.2543C43.7721 24.5597 44.5232 24.3062 44.8321 23.6866C45.1388 23.068 44.8899 22.3177 44.2742 22.0053L41.5802 20.6583C40.8011 20.3223 40.2102 20.647 39.8891 21.2164ZM51.8006 21.7792C51.053 21.777 50.4464 22.3835 50.4487 23.1311C50.4504 23.8758 51.0559 24.4779 51.8006 24.4756C52.5414 24.4725 53.1409 23.872 53.1427 23.1311C53.1449 22.3874 52.5443 21.7824 51.8006 21.7792ZM58.5404 23.1212C57.7909 23.1176 57.1824 23.7261 57.1861 24.4756C57.1892 25.2203 57.7957 25.8214 58.5404 25.8177C59.2803 25.8146 59.8794 25.2155 59.8825 24.4756C59.8862 23.7309 59.2851 23.1244 58.5404 23.1212ZM74.5593 45.5555C75.4793 45.687 76.1472 46.4571 76.1472 47.3868V52.7844C76.1472 54.1755 74.953 55.2008 73.5761 55.0041C51.0695 51.7905 28.5633 48.5745 6.05704 45.3589C4.39934 45.0947 3.18365 43.6831 3.18362 41.9987V36.6107C4.06247 34.9559 5.39026 35.6738 7.09432 35.9226C7.78526 36.025 8.42737 35.5446 8.52488 34.8534C8.62134 34.1667 8.14434 33.5314 7.4581 33.4326C4.54399 33.2402 3.2339 31.6991 3.18362 29.8661V24.4756C3.18362 23.7961 3.74725 23.3127 4.42 23.4088L10.1054 24.22V29.8661C10.1054 32.7793 12.4965 35.1704 15.4098 35.1704C16.6925 35.1704 17.7784 34.561 18.6986 33.7939C19.3139 36.0403 21.0586 37.8644 23.4917 37.8644C26.4049 37.8644 28.7961 35.4733 28.7961 32.56V26.8919C36.4911 27.9929 44.1865 29.0911 51.8817 30.1904V35.9324C51.8817 38.8456 54.2729 41.2367 57.1861 41.2367C60.0993 41.2367 62.4929 38.8456 62.4929 35.9324V31.7046L74.5863 33.4326C76.0193 33.6318 76.1964 34.5651 76.1472 35.2539V40.6517C76.1472 42.0427 74.953 43.0681 73.5761 42.8714L62.7805 41.3302C62.0931 41.2319 61.4562 41.7097 61.3573 42.397C61.255 43.0879 61.7349 43.73 62.4266 43.8275C66.4715 44.3982 70.5125 44.9976 74.5593 45.5555ZM29.6515 39.145L50.2201 42.0823C50.9075 42.1787 51.5431 41.7002 51.6408 41.0131C51.7372 40.3257 51.2588 39.69 50.5716 39.5923L30.0054 36.6477C29.1584 36.6364 28.6616 37.142 28.5822 37.7144C28.5143 38.4664 28.9138 39.0182 29.6515 39.145ZM7.32783 39.4058C6.63181 39.4072 6.06907 39.9732 6.07178 40.6692C6.07449 41.3643 6.64015 41.9255 7.3352 41.9228L11.3958 41.9153C12.0599 41.914 12.7166 42.063 13.3106 42.3599L16.3659 43.8937C17.3894 44.4052 18.5644 44.5327 19.6744 44.2551L22.5257 43.5399C23.0543 43.4076 23.6086 43.4647 24.0964 43.7066L27.1713 45.2404C28.1959 45.7501 29.3777 45.8723 30.4872 45.5922L33.2844 44.8867C33.8129 44.7533 34.3638 44.8126 34.8526 45.0534L37.9669 46.597C38.9918 47.1033 40.1644 47.2179 41.2729 46.9387L44.08 46.2332C44.6079 46.1002 45.1704 46.1584 45.658 46.3999L48.7428 47.9337C49.7681 48.4427 50.9395 48.5674 52.0488 48.2856L54.8092 47.59C55.3355 47.4562 55.8935 47.5157 56.3799 47.7568L59.4622 49.2807C60.4856 49.7893 61.6616 49.9175 62.7707 49.642L65.6515 48.9267C66.1936 48.7918 66.7699 48.8474 67.2762 49.0844L71.4671 51.036C72.0957 51.3296 72.8433 51.0624 73.1386 50.4313C73.4308 49.8001 73.1559 49.0515 72.5241 48.7599L68.3356 46.8008C67.3078 46.3216 66.1474 46.2103 65.0468 46.4838L62.1562 47.1991C61.6263 47.331 61.0769 47.2743 60.588 47.0324L57.5032 45.501C56.478 44.9916 55.3041 44.8649 54.1947 45.1473L51.427 45.8527C50.9005 45.9873 50.3429 45.9272 49.8563 45.6861L46.774 44.1522C45.7494 43.6435 44.5747 43.5212 43.4655 43.8008L40.6609 44.5062C40.1319 44.6393 39.5695 44.5803 39.0804 44.3395L35.9685 42.8004C34.9434 42.2941 33.7686 42.1663 32.6601 42.4467L29.8653 43.1619C29.3383 43.2949 28.7813 43.2274 28.2946 42.9851L25.2197 41.4599C24.1959 40.9504 23.0231 40.8211 21.9137 41.0985L19.0599 41.8138C18.5322 41.9461 17.9783 41.88 17.4917 41.637L14.4438 40.1131C13.499 39.6408 12.452 39.3957 11.3958 39.3977L7.32783 39.4058ZM4.42 47.6647C28.7676 51.1549 53.6879 54.7063 74.5593 57.6885C75.4797 57.8201 76.1471 58.5899 76.1472 59.5197V64.9077C76.1472 66.2987 74.953 67.3338 73.5761 67.1371L67.876 66.3211L67.8881 62.4079C67.8908 61.7128 67.3295 61.1473 66.6345 61.1445C65.9394 61.1418 65.3738 61.703 65.3711 62.3981L65.359 65.9622L59.7916 65.1658L59.7961 61.2576C59.7989 60.5625 59.2376 59.9968 58.5425 59.9941C57.8475 59.9914 57.2818 60.5527 57.2791 61.2478L57.2715 64.807L51.6919 64.0081L51.7066 60.1047C51.7094 59.4087 51.1466 58.8427 50.4506 58.8414C49.7555 58.8386 49.1899 59.3998 49.1871 60.0949L49.175 63.6468L43.6175 62.8527L43.622 58.9445C43.6262 58.2485 43.0645 57.6814 42.3684 57.6787C41.6724 57.676 41.1064 58.2388 41.105 58.9348L41.0975 62.4939L35.5276 61.6976L35.5397 57.7918C35.5425 57.0968 34.9812 56.531 34.2861 56.5283C33.5911 56.5256 33.0254 57.0869 33.0227 57.782L33.008 61.3386L27.4406 60.5422L27.448 56.6389C27.4507 55.9439 26.8895 55.3783 26.1944 55.3756C25.5032 55.3782 24.9435 55.9379 24.9408 56.6291L24.9261 60.1834L19.3439 59.3845L19.3562 55.4788C19.359 54.7837 18.7977 54.218 18.1026 54.2154C17.4076 54.2126 16.8419 54.7738 16.8392 55.4689L16.8318 59.0257L11.2595 58.2293L11.2742 54.326C11.277 53.6309 10.7157 53.0653 10.0207 53.0626C9.3256 53.0599 8.75995 53.6211 8.75724 54.3162L8.7425 57.8704L6.10997 57.4944C4.42405 57.2529 3.18268 55.8348 3.18265 54.1316V48.7338C3.22384 48.1524 3.44858 47.5232 4.42 47.6647Z" fill="black"/>
</svg>
