<svg width="79" height="72" viewBox="0 0 79 72" fill="none" xmlns="http://www.w3.org/2000/svg">
<path d="M3.99311 23.9555L8.87025 32.4027C7.01885 33.7777 6.1713 35.1702 6.17493 37.0489C4.67902 37.8284 3.65159 39.3814 3.65159 41.1717C3.65159 41.3221 3.66656 41.4695 3.68103 41.6162H1.92427C1.23145 41.6175 0.670163 42.1789 0.668741 42.8718V46.771C0.668767 48.263 1.69771 49.5231 3.07169 49.9185C4.12606 56.2884 7.60431 61.8237 12.5287 65.5647V67.9356C12.5287 69.7391 14.0126 71.2305 15.8162 71.2305H35.8751C35.8876 71.2307 35.8997 71.2307 35.9122 71.2305C35.9147 71.2305 35.9171 71.2305 35.9197 71.2305H61.448C62.2266 71.2305 62.9514 71.0098 63.5905 70.6531C63.8212 71.0118 64.218 71.2292 64.6445 71.2305H77.4037C78.1023 71.2332 78.6693 70.6661 78.6666 69.9676V20.5107C78.6666 19.2221 78.2856 17.9612 77.5708 16.889L72.2858 8.96274V4.55483C72.2858 2.11269 70.2808 0.107701 67.8386 0.107701C59.309 0.0963619 50.8123 0.107701 42.3104 0.107701C39.8682 0.107701 37.8608 2.11269 37.8607 4.55483V8.9504L31.6863 18.2158C31.5467 18.4211 31.4872 18.6547 31.4723 18.9136V32.6654C30.7803 32.0125 29.8912 31.5808 28.9072 31.4467C26.8941 28.0956 22.6501 28.5164 20.863 31.4316C19.5243 31.3065 18.0192 31.8728 17.1652 32.6527L11.2659 22.4292C9.68233 20.0297 6.391 18.8658 3.67893 20.5446C2.38291 21.518 1.33637 22.9663 0.782116 24.1564C0.490878 24.7894 0.769515 25.5385 1.40375 25.8271C2.03672 26.1185 2.78583 25.8423 3.0745 25.2056L3.99311 23.9555ZM42.31 2.62377H45.6344V4.55494C45.6357 5.25068 46.2015 5.81324 46.8973 5.81056C47.5891 5.80784 48.149 5.24682 48.1503 4.55494V2.62377H50.6663V4.55494C50.6677 5.24777 51.229 5.80916 51.9218 5.81056C52.6176 5.81324 53.1834 5.25068 53.1847 4.55494V2.62377H56.9538V4.55494C56.951 5.25355 57.5181 5.82062 58.2167 5.81794C58.9114 5.81522 59.4725 5.24973 59.4697 4.55494V2.62377H61.9882V4.55494C61.9854 5.25355 62.5525 5.82062 63.2511 5.81794C63.9458 5.81522 64.5069 5.24973 64.5041 4.55494V2.62377H67.8383C68.9207 2.62377 69.7695 3.47252 69.7695 4.55494V8.08568H40.369V4.55494C40.369 3.47252 41.2276 2.62377 42.31 2.62377ZM39.7842 10.6016H68.6737L63.9661 17.6581H35.0766L39.7842 10.6016ZM71.0275 11.6016L75.4697 18.2798C75.9091 18.9389 76.1479 19.7187 76.1479 20.5108V68.7146H65.4329C65.7207 68.1272 65.8973 67.4774 65.8973 66.7835V19.3019L71.0275 11.6016ZM33.9882 20.1766H63.3887V27.2331H33.9882V20.1766ZM9.08401 23.6852C12.5176 29.7192 15.9904 35.6392 19.4378 41.609L17.0963 41.6203L6.06435 22.5197C7.39252 22.1127 8.38142 22.5386 9.08401 23.6891V23.6852ZM33.9882 40.0562H39.7277C40.4264 40.0589 40.9934 39.4919 40.9906 38.7933C40.9879 38.0985 40.4225 37.5375 39.7277 37.5402H33.9882V35.0243H42.2437C42.9394 35.0229 43.502 34.4571 43.4992 33.7614C43.4966 33.0695 42.9356 32.5096 42.2437 32.5083H33.9882L33.9882 29.7491H63.3887V32.5083H55.1331C54.4384 32.5056 53.8729 33.0666 53.8702 33.7614C53.8675 34.46 54.4345 35.027 55.1331 35.0243H63.3887V37.5402H57.6516C56.9568 37.5375 56.3914 38.0986 56.3887 38.7933C56.3859 39.4919 56.9529 40.0589 57.6516 40.0562H63.3887V48.8326H57.6516C56.9568 48.8298 56.3914 49.3908 56.3887 50.0856C56.3859 50.7842 56.9529 51.3514 57.6516 51.3486H63.3887V53.867H55.1331C54.4384 53.8643 53.8729 54.4253 53.8702 55.1201C53.873 55.8149 54.4384 56.3759 55.1331 56.3732H63.3887V59.1398H33.9882V56.3732H42.2437C42.9356 56.3718 43.4965 55.812 43.4992 55.1201C43.4966 54.4282 42.9356 53.8683 42.2437 53.867H33.9882V51.3486H39.7277C40.4263 51.3514 40.9934 50.7842 40.9906 50.0856C40.9879 49.3908 40.4225 48.8298 39.7277 48.8326H33.998L33.9882 40.0562ZM26.8285 32.9136C26.9183 33.3201 27.2035 33.6561 27.5901 33.8105C27.8165 33.9122 28.0678 33.9447 28.3125 33.9038C29.3954 33.919 30.2547 34.6965 30.401 35.7367C29.4363 36.1319 28.6294 36.8324 28.1135 37.7294C26.1706 38.0854 24.6509 39.6542 24.3543 41.6164H22.3346L18.5017 34.9726C19.4057 32.579 22.3241 34.888 22.8089 33.2136C23.6568 31.0181 26.0911 31.5625 26.8285 32.9136ZM14.1897 41.6164H6.22652C6.19579 41.4724 6.16752 41.3269 6.16752 41.1719C6.16752 40.1262 6.89718 39.2784 7.86531 39.0735C8.94764 38.695 8.71524 37.5989 8.64652 36.631C8.64652 35.6639 9.27 34.8717 10.1379 34.5966L14.1897 41.6164ZM48.6516 36.862C48.3296 36.8734 48.0235 37.0046 47.7965 37.2328C45.7521 39.2773 43.7368 42.1967 43.1823 45.1542C42.905 46.6329 43.0282 48.2079 43.9169 49.5006C44.8057 50.7933 46.3703 51.6471 48.4845 51.9994C48.6195 52.0221 48.7573 52.0221 48.8923 51.9994C51.0065 51.6471 52.5638 50.7933 53.4525 49.5006C54.3413 48.2079 54.4644 46.6329 54.1872 45.1542C53.6326 42.1967 51.6247 39.2773 49.5803 37.2328C49.3353 36.986 48.9991 36.852 48.6516 36.862ZM30.1258 39.3412C30.3402 38.7127 30.8374 38.2189 31.4723 38.0071L31.4722 41.6164H26.9218C27.1827 40.8307 27.8723 40.2654 28.6062 40.2726C29.3401 40.2839 29.9294 39.9244 30.1258 39.3412ZM48.6884 40.5132C49.9927 42.1534 51.4114 43.9974 51.7154 45.6188C51.9122 46.6683 51.7962 47.4675 51.3813 48.071C50.9957 48.6318 50.1367 49.1213 48.6884 49.4173C47.2396 49.121 46.3714 48.632 45.9857 48.071C45.5708 47.4675 45.4646 46.6683 45.6614 45.6188C45.9654 43.9974 47.3842 42.1534 48.6884 40.5132ZM3.18721 44.1348C12.6204 44.1386 22.0545 44.1348 31.4722 44.1348V47.5427H3.96607C3.52223 47.5427 3.18722 47.215 3.18721 46.7712V44.1348ZM5.91694 50.0586H31.4722V63.6827H14.2265C9.8907 60.4413 7.00079 55.5801 5.91694 50.0586ZM10.4206 52.437C9.78931 52.7284 9.51418 53.4768 9.80637 54.1077C10.3633 55.3087 10.9978 56.3881 11.6639 57.4321C12.0385 58.0167 12.8161 58.1871 13.401 57.813C13.9856 57.4384 14.156 56.6608 13.7818 56.0759C13.1541 55.0921 12.5878 54.1194 12.0914 53.0489C11.7267 52.4087 11.0079 52.177 10.4206 52.437ZM13.4673 59.9039C13.4648 60.6025 14.0316 61.1695 14.7302 61.1668C15.425 61.1641 15.986 60.5987 15.9833 59.9039C15.9808 59.213 15.4211 58.6534 14.7059 58.6703C13.9906 58.6892 13.4689 59.237 13.4673 59.9039ZM33.9882 61.6581H63.3887V66.7835C63.3887 67.866 62.5301 68.7146 61.4476 68.7146H35.9194C34.8369 68.7146 33.9882 67.866 33.9882 66.7835C34.0079 65.0597 33.9882 63.3938 33.9882 61.6581ZM15.0447 66.1987H31.4722V66.7835C31.4722 67.4774 31.6487 68.1272 31.9366 68.7146H15.8162C15.3724 68.7146 15.0447 68.3794 15.0447 67.9357V66.1987Z" fill="black"/>
</svg>
