<svg width="79" height="74" viewBox="0 0 79 74" fill="none" xmlns="http://www.w3.org/2000/svg">
<path d="M17.2257 10.5398C15.1674 9.37369 12.5015 10.9079 12.4819 13.2734L12.3969 23.5281L4.63786 21.5228C2.34779 20.9291 0.171907 23.1049 0.765637 25.3951L4.94618 41.525H3.71047C3.02018 41.5222 2.45992 42.0825 2.46261 42.7727C2.4651 43.4592 3.02398 44.0135 3.71047 44.0108H5.26422C4.68847 44.9741 4.42127 46.1321 4.59903 47.3321L9.21654 68.5188C9.8648 71.4924 12.3435 73.8695 15.5019 73.8695H42.6245C43.3072 73.8669 43.86 73.3141 43.8627 72.6314C43.8651 71.9449 43.311 71.3862 42.6245 71.3835H33.6201L41.4057 63.5566C41.9362 63.0261 42.0018 62.3489 41.4057 61.7528L32.3746 52.7289L40.5682 44.5354L44.6613 48.6261C45.1472 49.1141 45.938 49.1141 46.4239 48.6261C46.9118 48.1402 46.9118 47.3518 46.4239 46.866L43.5688 44.0109H77.4284C78.1111 44.0083 78.6639 43.4555 78.6665 42.7728C78.669 42.0863 78.1149 41.5276 77.4284 41.525H75.4668L73.8742 34.7395C75.4645 28.0469 76.7297 21.408 78.5014 14.8612C78.5014 14.8581 78.5014 14.8574 78.5014 14.8536C79.0939 12.5668 76.9253 10.3965 74.6389 10.9815H74.6291L59.3344 14.9023L58.1133 10.4862C57.7977 9.34628 56.8983 8.57085 55.8652 8.294C54.832 8.01734 53.6615 8.23426 52.8184 9.06356L46.7102 15.0478L39.2279 2.31928C38.6282 1.29968 37.564 0.797112 36.4943 0.797112C35.4247 0.797112 34.3511 1.2996 33.7514 2.31917L26.0118 15.4823L17.2257 10.5398ZM36.4946 3.20568C36.7186 3.20568 36.9434 3.33184 37.0918 3.58424L44.8848 16.8348L41.7992 19.8574C41.1931 18.8772 40.141 18.3837 39.0922 18.3837C38.0226 18.3837 36.9559 18.896 36.3562 19.9156L35.7395 20.9619L28.1747 16.6989L35.8973 3.58424C36.0457 3.33214 36.2705 3.20568 36.4946 3.20568ZM36.2421 8.61949C35.4227 8.61583 34.7575 9.28101 34.7612 10.1004C34.7637 10.915 35.4275 11.5728 36.2421 11.5691C37.052 11.566 37.7078 10.9103 37.7109 10.1004C37.7146 9.28577 37.0567 8.62255 36.2421 8.61949ZM55.0691 10.6029C55.3554 10.5991 55.6197 10.7919 55.7173 11.1443L58.6913 21.8919L46.9168 28.5536L43.0956 22.057L54.5617 10.8335C54.7182 10.6793 54.8974 10.6056 55.0691 10.6029ZM34.4797 23.1056L30.8309 29.3086L27.0897 22.8702C27.0897 22.8671 27.0897 22.8676 27.0897 22.8626C26.49 21.8431 25.416 21.3283 24.3464 21.3283C23.2767 21.3283 22.2125 21.8406 21.6128 22.8602L14.7957 34.4502L14.9681 13.29C14.9718 12.8508 15.2616 12.5736 15.6211 12.5837C15.741 12.587 15.87 12.6215 15.9973 12.6956L34.4797 23.1056ZM39.3132 12.8704C38.4938 12.8668 37.8286 13.532 37.8322 14.3514C37.8347 15.1661 38.4985 15.8238 39.3132 15.8202C40.1231 15.8171 40.7789 15.1613 40.7819 14.3514C40.7857 13.5367 40.1278 12.8735 39.3132 12.8704ZM75.4572 13.3536C75.9159 13.346 76.2266 13.7318 76.0981 14.2275C74.7428 19.2387 73.6892 24.2496 72.5828 29.2406L71.398 24.1909C71.1979 23.0251 70.381 22.1758 69.3806 21.7972C68.3802 21.4185 67.1998 21.5148 66.2779 22.2561C66.2681 22.2599 66.2602 22.2713 66.2511 22.2751L65.1538 23.205C64.8677 21.262 62.7685 20.0221 60.932 20.6752L59.9973 17.2982L75.2531 13.3823C75.324 13.3634 75.3916 13.3536 75.4572 13.3536ZM53.9208 16.6649C53.1109 16.668 52.4551 17.3238 52.452 18.1337C52.4483 18.9484 53.1062 19.6116 53.9208 19.6147C54.7402 19.6183 55.4054 18.9531 55.4017 18.1337C55.3992 17.3191 54.7354 16.6613 53.9208 16.6649ZM69.769 16.9295C68.9515 16.9273 68.2883 17.5905 68.2905 18.408C68.2918 19.2226 68.9544 19.8814 69.769 19.8792C70.5799 19.8761 71.236 19.2189 71.2378 18.408C71.2403 17.5943 70.5827 16.9326 69.769 16.9295ZM18.4517 17.7136C17.638 17.7114 16.9763 18.3688 16.9732 19.1825C16.9757 19.9962 17.638 20.6535 18.4517 20.6513C19.2616 20.6482 19.9174 19.9924 19.9205 19.1825C19.918 18.3726 19.2616 17.7167 18.4517 17.7136ZM49.4174 20.6513C48.598 20.6477 47.9328 21.3128 47.9365 22.1322C47.9389 22.9468 48.6027 23.6046 49.4174 23.6009C50.2273 23.5978 50.8831 22.942 50.8862 22.1322C50.8899 21.3175 50.232 20.6544 49.4174 20.6513ZM39.0922 20.7944C39.3163 20.7944 39.5387 20.9208 39.687 21.1732L51.6557 41.5248H26.5263L38.495 21.1732C38.6433 20.9207 38.8682 20.7944 39.0922 20.7944ZM62.8961 41.5248H54.5496L48.1792 30.6948L61.6628 23.0547C61.7902 22.9825 61.9184 22.9466 62.0391 22.9428C62.4012 22.9352 62.6959 23.2092 62.6995 23.6493L62.8961 41.5248ZM24.3462 23.7418C24.5703 23.7418 24.7951 23.8656 24.9434 24.1181L29.3813 31.7728L23.6446 41.525H13.5088L23.749 24.1181C23.8973 23.8656 24.1222 23.7418 24.3462 23.7418ZM12.3775 26.0966L12.2731 38.7354L10.632 41.5248H7.51476L3.16912 24.7711C3.04062 24.2754 3.34888 23.8877 3.80762 23.897L12.3775 26.0966ZM68.2784 24.0112C68.5973 23.9923 68.8804 24.2176 68.9485 24.6133L72.9105 41.5248H65.3845L65.2195 26.4194L67.839 24.1932C67.9815 24.0787 68.1335 24.0191 68.2784 24.0112ZM8.5684 27.6455C7.74998 27.6419 7.08522 28.3055 7.0875 29.124C7.08874 29.9395 7.75282 30.5988 8.5684 30.5953C9.37926 30.5922 10.0354 29.9348 10.0372 29.124C10.0397 28.3102 9.38209 27.6486 8.5684 27.6455ZM59.2108 28.2039C58.4009 28.207 57.7451 28.8627 57.742 29.6726C57.7383 30.4873 58.3962 31.1504 59.2108 31.1535C60.0302 31.1571 60.6954 30.492 60.6917 29.6726C60.6893 28.858 60.0255 28.2003 59.2108 28.2039ZM38.3591 28.5948C37.5397 28.5912 36.8745 29.2562 36.8781 30.0756C36.8806 30.8902 37.5444 31.548 38.3591 31.5444C39.169 31.5413 39.8248 30.8855 39.8278 30.0756C39.8316 29.261 39.1737 28.5979 38.3591 28.5948ZM41.3524 33.1929C40.5331 33.1893 39.8679 33.8544 39.8715 34.6738C39.874 35.4884 40.5378 36.1461 41.3524 36.1425C42.1624 36.1394 42.8181 35.4837 42.8212 34.6738C42.825 33.8591 42.1671 33.196 41.3524 33.1929ZM68.4726 34.3727C67.6608 34.3745 67.0032 35.0321 67.0014 35.8439C66.9989 36.6585 67.658 37.3207 68.4726 37.3225C69.2901 37.3247 69.9534 36.6614 69.9511 35.8439C69.9499 35.0293 69.2873 34.3704 68.4726 34.3727ZM57.1861 34.8073C56.3752 34.8091 55.718 35.4652 55.7149 36.2761C55.7112 37.0916 56.3705 37.7552 57.1861 37.757C58.0045 37.7592 58.6682 37.0945 58.6646 36.2761C58.6621 35.4624 57.9998 34.8051 57.1861 34.8073ZM21.4014 35.3996C20.583 35.396 19.9182 36.0598 19.9205 36.8782C19.9217 37.6938 20.5858 38.353 21.4014 38.3494C22.2122 38.3462 22.8684 37.689 22.8702 36.8782C22.8726 36.0645 22.2151 35.4027 21.4014 35.3996ZM36.1498 36.8782C35.3343 36.8746 34.6707 37.5338 34.6689 38.3494C34.6664 39.1678 35.3314 39.8314 36.1498 39.8278C36.9635 39.8247 37.6209 39.163 37.6186 38.3494C37.6174 37.5385 36.9607 36.8813 36.1498 36.8782ZM17.6675 44.0108L10.7097 50.9663L7.17003 47.4242C7.16504 47.4205 7.16005 47.4167 7.15548 47.4091L7.05835 46.9623C6.82472 45.3854 8.00611 44.0078 9.60018 44.0078L17.6675 44.0108ZM23.6592 44.0108H37.5676L30.6146 50.9663L23.6592 44.0108ZM20.6609 44.5303L28.8569 52.7264L20.6609 60.9199L12.4673 52.7264L20.6609 44.5303ZM52.571 46.526C48.4048 46.526 45.5457 50.2103 46.3949 53.3795C45.271 54.0284 44.3907 55.1648 44.0351 56.4627H43.8627C43.1762 56.4654 42.6219 57.024 42.6246 57.7104C42.6271 58.3932 43.18 58.946 43.8627 58.9486H44.0545L45.5597 67.9871C46.1234 71.3696 49.0689 73.8694 52.4981 73.8694H68.7931C72.2223 73.8694 75.1653 71.3696 75.7291 67.9871L77.2367 58.9486H77.4285C78.1112 58.946 78.6639 58.3932 78.6666 57.7104C78.6691 57.024 78.115 56.4654 77.4285 56.4627C76.8854 53.8393 75.6943 51.7637 73.7189 50.772C71.7421 48.2865 68.7948 46.5756 66.2415 46.526C63.0928 46.5281 60.4523 48.0053 58.9389 48.0675C58.2538 48.094 57.3821 47.8059 56.3242 47.4072C54.9663 46.998 53.7192 46.5398 52.571 46.526ZM52.571 49.0119C53.4525 49.0118 54.3984 49.3407 55.4527 49.7378C57.3307 50.2219 58.3441 51.3069 59.3249 52.9668C59.5058 53.6273 60.186 54.017 60.8471 53.8383C61.5114 53.6618 61.9064 52.98 61.7284 52.3161C61.5174 51.5363 61.1153 50.8833 60.665 50.3302C62.6356 49.9003 64.4674 49.0131 66.2415 49.0119C67.7563 49.0117 69.184 49.561 70.291 50.5147C69.2549 50.6844 68.0762 51.1233 67.2248 52.1971C66.8003 52.7346 66.8901 53.514 67.4262 53.9403C67.9638 54.365 68.6785 54.2539 69.1693 53.7365C70.2362 52.8607 71.211 52.5818 72.4881 52.967C73.9638 53.5034 74.9399 54.8891 74.9401 56.4629H46.5648C46.8462 55.6718 47.3933 54.9896 48.1282 54.5377C48.3562 54.4784 48.8514 54.3605 49.4416 54.3072C50.2529 54.2335 51.1475 54.3567 51.4882 54.5914C52.0511 54.9794 52.8206 54.8389 53.2119 54.278C53.6045 53.7109 53.4611 52.9335 52.8914 52.5446C51.6227 51.8158 50.2339 51.7494 48.9367 51.8673C49.3251 50.22 50.7968 49.0119 52.571 49.0119ZM8.13627 51.9057L8.99568 52.7652L8.45673 53.3674L8.13627 51.9057ZM30.617 54.4841L38.8058 62.6752L30.6122 70.8688L22.421 62.6776L30.617 54.4841ZM10.7558 54.5309L18.9033 62.6783L12.1881 69.4007C11.9446 68.9783 11.7591 68.5033 11.6468 67.9878L9.10737 56.359L10.7558 54.5309ZM46.5721 58.9493H74.7192L73.2795 67.5848C72.9128 69.7854 71.0241 71.3841 68.7931 71.3841H52.4982C50.2671 71.3841 48.3858 69.7854 48.019 67.5848L46.5721 58.9493ZM70.4779 63.0183C69.8899 63.0447 69.4014 63.4809 69.3078 64.0621L68.747 67.4464C68.6329 68.1235 69.0894 68.7649 69.7666 68.8788C70.4429 68.9914 71.0826 68.5352 71.1965 67.8592L71.7573 64.4652C71.8714 63.7881 71.4149 63.1467 70.7377 63.0328C70.6518 63.0177 70.5648 63.0145 70.4779 63.0183ZM20.6585 64.4352L27.6067 71.3834H15.502C14.9702 71.3834 14.4716 71.2719 14.0187 71.0754L20.6585 64.4352Z" fill="black"/>
</svg>
