<svg width="72" height="79" viewBox="0 0 72 79" fill="none" xmlns="http://www.w3.org/2000/svg">
<path d="M69.0229 43.079C68.9627 34.133 61.6701 26.8717 52.7102 26.8717C47.2751 26.8717 42.4522 29.536 39.4865 33.6331C39.2031 33.3915 38.9081 33.1648 38.6039 32.9491C38.898 31.084 38.8995 29.244 38.4323 27.7248C37.5154 25.4325 36.7941 22.7986 37.5424 21.0983C39.0448 19.9595 39.3074 17.3665 38.8956 15.7072L68.535 7.76415C70.5295 7.22973 71.7392 5.14481 71.2048 3.15036C70.5566 0.838949 68.798 -0.0622228 66.5909 0.492876L36.9393 8.4336C36.2255 5.76952 33.4597 4.16992 30.7957 4.88372L11.9407 9.93385C11.2742 10.1164 10.8808 10.8037 11.0606 11.471C11.239 12.1415 11.9275 12.5401 12.5977 12.3609L19.0257 10.6376C18.8273 11.5138 18.7505 12.4088 18.7757 13.3023L13.3479 14.7512C12.6802 14.9338 12.2864 15.6227 12.4678 16.2908C12.6472 16.9615 13.3371 17.3591 14.0074 17.1783L19.1409 15.8053C19.436 16.6164 19.6325 17.4525 19.7759 18.2373L14.6546 19.6077C13.9851 19.7869 13.5878 20.4754 13.7671 21.1449C13.9498 21.8114 14.6369 22.2048 15.3042 22.025L19.5234 20.8973C19.0699 21.8242 18.8294 22.7587 18.658 23.7263L15.8411 24.4815C15.1707 24.6599 14.772 25.3483 14.9512 26.0186C15.1295 26.6903 15.8197 27.0892 16.4908 26.9085L18.7879 26.2932C18.8874 26.7633 19.0261 27.2478 19.2145 27.7519C19.4665 28.4263 19.6107 29.2765 19.6361 30.1813C18.1994 29.6731 16.6624 29.3821 15.0542 29.3821C7.4725 29.3821 1.29879 35.5327 1.25188 43.1036C1.251 43.1149 1.25063 43.1186 1.24937 43.1262C1.24927 43.1488 1.24686 43.1689 1.24686 43.1897V48.137C1.24686 49.9618 2.54779 51.5012 4.26474 51.8805C5.55741 60.0234 9.99834 67.0948 16.3044 71.8362V74.4986C16.3044 76.6045 18.045 78.3329 20.1509 78.3329H50.1237C52.2295 78.3329 53.9604 76.6045 53.9604 74.4986V71.8437C60.2721 67.1014 64.7172 60.0241 66.0098 51.8757C67.7234 51.4924 69.0276 49.9581 69.0276 48.137L69.0229 43.079ZM26.9196 13.7165C28.051 13.413 29.1832 13.1102 30.315 12.807C30.9867 12.6286 31.3856 11.9385 31.2049 11.2674C31.0564 10.7197 30.5588 10.3398 29.9914 10.3408C29.0129 10.5078 27.9678 10.8423 27.123 11.0688C27.3851 10.0214 27.8063 9.18236 28.2532 8.16624L31.4452 7.31063C32.7987 6.94817 34.1493 7.72714 34.5121 9.08067L34.8357 10.2942C35.014 10.9658 35.7042 11.3647 36.3752 11.184L67.2379 2.9199C68.0357 2.76759 68.5741 3.09633 68.7777 3.79996C68.961 4.48394 68.5718 5.15386 67.8878 5.33713L37.0325 13.6112C36.3608 13.7896 35.9619 14.4797 36.1425 15.1508L36.4662 16.3545C36.6891 17.1864 36.476 18.0184 36.0357 18.5248C35.5951 19.0311 35.1813 19.2992 34.6888 19.4312L27.6234 21.3311C27.8564 20.4556 27.9599 19.553 27.9323 18.6491L31.6121 17.6612C32.2826 17.4828 32.6811 16.7943 32.502 16.124C32.3579 15.5751 31.8634 15.1911 31.2958 15.1876C30.0467 15.4102 28.7695 15.8229 27.5204 16.1583C27.1753 15.3485 27.0491 14.4493 26.9196 13.7165ZM25.1669 8.99243C24.7015 10.3231 24.4387 11.6025 24.38 12.8192C24.4113 14.2192 24.7901 16.0521 25.1081 16.8742C25.74 19.3629 24.9398 21.0004 24.3849 23.0448C23.9182 25.3925 24.278 26.7924 25.1816 28.8354C25.6121 29.8165 25.8328 30.8641 25.8607 31.9146C25.2843 32.1973 24.7307 32.5194 24.2084 32.8829C23.5608 32.3071 22.8597 31.7931 22.1123 31.3458C22.2443 29.7425 22.0614 28.1921 21.568 26.8717C20.9598 25.2441 20.9895 24.2393 21.3057 23.1722C22.4182 20.9881 22.6267 18.4537 21.8819 16.1142C21.3197 13.9179 21.2008 11.6299 21.8989 9.86765L25.1669 8.99243ZM1.73974 11.9245C1.07387 12.1343 0.707055 12.8469 0.923376 13.5107C1.47881 15.2552 1.30669 17.1463 0.489427 19.1807C-0.327846 21.2152 -0.0943668 23.642 1.01655 25.7048C1.34518 26.3129 2.10359 26.5408 2.71303 26.2147C3.326 25.8851 3.55367 25.1196 3.2205 24.5085C2.44202 23.063 2.27486 21.3711 2.74 19.7989C3.84815 17.6166 4.05744 15.0769 3.31366 12.7409C3.02956 11.8904 2.34882 11.7793 1.73974 11.9245ZM6.88066 11.9245C6.21579 12.1351 5.85023 12.8477 6.06676 13.5107C6.62219 15.2552 6.45007 17.1463 5.6328 19.1807C4.81551 21.2152 5.04901 23.642 6.15991 25.7048C6.48848 26.3114 7.24508 26.5392 7.85394 26.2147C8.46782 25.8859 8.69665 25.1202 8.36386 24.5085C7.585 23.0623 7.41737 21.3693 7.88336 19.7965C8.99057 17.6146 9.20056 15.0761 8.45702 12.7409C8.095 11.7915 7.44295 11.8001 6.88066 11.9245ZM34.7452 22.0175C34.472 24.3535 35.3236 26.7103 36.0764 28.5952C36.3889 29.5911 36.4489 30.6324 36.297 31.6449C35.4669 31.2885 34.5889 31.0257 33.6787 30.8554C33.5988 29.6266 33.3116 28.4105 32.806 27.2615L32.1955 25.8787C31.9299 24.8275 31.9508 23.7347 32.247 22.6845L34.7452 22.0175ZM29.5626 23.4027C29.485 24.6188 29.5632 25.7309 29.8322 26.7417L30.5088 28.2715C30.8435 29.032 31.0444 29.8315 31.1364 30.6421C30.163 30.661 29.2165 30.793 28.3074 31.0222C28.1949 29.9269 27.9306 28.8423 27.4787 27.8154C26.7638 26.6637 26.7162 25.3209 26.7334 24.1603L29.5626 23.4027ZM52.7102 29.382C59.9277 29.382 65.82 34.8869 66.4512 41.9365H63.931C63.3053 36.2985 58.5113 31.8924 52.7102 31.8924C48.3933 31.8924 44.6351 34.3347 42.7348 37.9061C42.3347 37.0482 41.8438 36.2434 41.2688 35.5036C43.7483 31.8229 47.9289 29.382 52.7102 29.382ZM15.0542 31.8924C20.8848 31.8924 25.6551 36.2754 26.275 41.9365H23.7376C23.1256 37.6894 19.4661 34.4053 15.0542 34.4053C10.6423 34.4053 6.97433 37.6894 6.36098 41.9365H3.83097C4.45087 36.2754 9.22363 31.8924 15.0542 31.8924ZM31.3718 33.1452C38.1178 33.1452 40.784 38.2996 41.3301 41.9365H38.7902C38.1891 38.3837 35.0894 35.6556 31.3718 35.6556C29.879 35.6556 28.4845 36.1039 27.3096 36.8593C26.9217 36.1116 26.4667 35.4065 25.9539 34.7461C27.5165 33.7388 29.3683 33.1452 31.3718 33.1452ZM52.7102 34.4053C57.1512 34.4053 60.7883 37.6683 61.3936 41.9365H58.8563C58.2728 39.0795 55.7336 36.9157 52.7102 36.9157C49.6869 36.9157 47.1396 39.0795 46.5543 41.9365H44.017C44.6237 37.6683 48.2692 34.4053 52.7102 34.4053ZM15.0542 36.9157C18.1061 36.9157 20.6272 39.0617 21.2027 41.9365H18.582C18.0598 40.4836 16.6783 39.4261 15.0542 39.4261C13.43 39.426 12.0411 40.4833 11.5166 41.9365H8.89589C9.47316 39.0617 12.0024 36.9157 15.0542 36.9157ZM31.3718 38.166C33.7241 38.166 35.6642 39.7647 36.2185 41.9365H33.5292C33.0904 41.1909 32.2874 40.6764 31.3718 40.6764C30.4565 40.6764 29.6533 41.1913 29.2144 41.9365H28.7952C28.7116 41.0137 28.5398 40.1164 28.2828 39.2545C29.1354 38.5822 30.1954 38.166 31.3718 38.166ZM52.7102 39.4261C54.3628 39.4261 55.7362 40.4698 56.2478 41.9365H49.1652C49.6793 40.4698 51.0577 39.4261 52.7102 39.4261ZM3.75988 44.4494H66.5149V48.1365C66.5149 48.8858 65.9306 49.4603 65.1813 49.4603H5.08371C4.33446 49.4603 3.75988 48.8858 3.75988 48.1365V44.4494ZM7.08664 51.9733H63.1808C61.862 59.2885 58.0165 65.7145 52.2836 69.9652H17.9912C12.2573 65.7143 8.40532 59.2893 7.08664 51.9733ZM57.7702 54.8808C56.9988 56.8308 56.0795 58.479 55.0171 60.1442C54.637 60.7298 54.8077 61.513 55.3971 61.8872C55.9833 62.2588 56.7597 62.0842 57.1304 61.4973C58.2435 59.7526 59.2583 57.9379 60.1041 55.8C60.3618 55.1548 60.0465 54.4229 59.4005 54.1672C58.6447 53.931 58.0484 54.2932 57.7702 54.8808ZM49.4202 66.0476C48.876 66.4751 48.7806 67.2627 49.2069 67.8079C49.6316 68.3552 50.4194 68.4551 50.9672 68.0308C51.8422 67.3457 52.7052 66.6033 53.5437 65.7878C54.0446 65.3045 54.0567 64.506 53.5709 64.0078C52.8567 63.4594 52.2174 63.5723 51.7936 63.9889L49.4202 66.0476ZM18.8149 72.4781H51.4501V74.4982C51.4501 75.2474 50.873 75.8219 50.1238 75.8219H20.151C19.4019 75.8219 18.8149 75.2474 18.8149 74.4982V72.4781Z" fill="black"/>
</svg>
