<svg width="2" height="2" viewBox="0 0 2 2" fill="none" xmlns="http://www.w3.org/2000/svg">
<path d="M1.00431 1.424C0.897646 1.424 0.796313 1.39733 0.700313 1.344C0.609646 1.29067 0.537646 1.21867 0.484313 1.128C0.430979 1.03733 0.404313 0.930667 0.404313 0.808C0.404313 0.696 0.430979 0.594667 0.484313 0.504C0.537646 0.413333 0.609646 0.341333 0.700313 0.288C0.796313 0.234667 0.897646 0.208 1.00431 0.208C1.11098 0.208 1.20965 0.234667 1.30031 0.288C1.39098 0.341333 1.46298 0.413333 1.51631 0.504C1.57498 0.594667 1.60431 0.696 1.60431 0.808C1.60431 0.930667 1.57498 1.03733 1.51631 1.128C1.46298 1.21867 1.39098 1.29067 1.30031 1.344C1.20965 1.39733 1.11098 1.424 1.00431 1.424Z" fill="#333333"/>
</svg>
