<svg width="29" height="26" viewBox="0 0 29 26" fill="none" xmlns="http://www.w3.org/2000/svg">
<path d="M10.1042 5.01943C8.56718 5.64937 7.23219 7.02405 6.50574 8.09471C7.9146 8.31556 9.02579 8.82929 9.02579 8.82929C9.63426 9.11216 9.91783 9.84351 9.65875 10.4608C9.40037 11.0741 8.70362 11.345 8.09745 11.0618C8.09745 11.0618 7.24088 10.6737 6.18978 10.5137C5.15886 10.3568 4.16167 10.4739 3.53084 11.1186C2.19017 12.8629 2.43635 14.2995 3.29303 15.3491C4.15637 16.4068 5.7324 16.9907 7.40967 16.3012C7.44887 16.281 10.7882 14.5648 12.0124 12.2343C12.3239 11.6479 13.0452 11.4452 13.6253 11.781C14.2046 12.118 14.4236 12.8661 14.115 13.454C12.4321 16.6571 8.91099 18.3337 8.49912 18.5215C9.524 19.2911 10.3538 20.2965 10.9509 21.1619C13.9768 22.038 17.5354 20.9906 20.0172 19.9313C22.5328 18.8818 24.1164 16.8716 25.0357 14.7733C24.5624 13.3209 23.9262 12.269 23.6008 11.7191C22.1539 12.7882 20.4804 13.5349 18.7952 14.1687C18.1748 14.3677 17.4998 14.0097 17.2835 13.3666C17.066 12.7202 17.3936 12.0299 18.0155 11.8244C18.0155 11.8244 20.1888 11.0998 22.033 9.81392C23.9276 8.55039 24.9688 6.79853 24.295 5.18354C23.3418 3.29448 21.71 2.104 20.0603 2.10776C18.4843 2.34837 17.9506 2.89575 17.3876 4.13536C17.1166 4.79342 16.9306 5.49573 16.9945 6.19503C17.1478 6.85872 16.753 7.50909 16.1125 7.64811C15.4714 7.78804 14.8264 7.36278 14.6722 6.69849C14.5215 6.05399 14.5302 5.43753 14.627 4.86347C13.1605 4.57095 11.7331 4.49817 10.4155 4.90526C10.3104 4.93785 10.2077 4.97999 10.1042 5.01943Z" fill="#333333"/>
</svg>
