<svg width="256" height="1874" viewBox="0 0 256 1874" fill="none" xmlns="http://www.w3.org/2000/svg">
<g clip-path="url(#clip0_574_251)">
<path d="M256 0H0V1874H256V0Z" fill="#FBE0C3"/>
<path d="M0 379.371L21.3 395.825C42.7 412.051 85.3 444.961 128 397.654C170.7 350.347 213.3 223.28 234.7 159.519L256 95.9854V1876.29H234.7C213.3 1876.29 170.7 1876.29 128 1876.29C85.3 1876.29 42.7 1876.29 21.3 1876.29H0V379.371Z" fill="#FCC490"/>
<path d="M0 493.639L21.3 547.345C42.7 601.051 85.3 708.463 128 748.914C170.7 789.137 213.3 762.627 234.7 749.143L256 735.888V1876.29H234.7C213.3 1876.29 170.7 1876.29 128 1876.29C85.3 1876.29 42.7 1876.29 21.3 1876.29H0V493.639Z" fill="#FE8238"/>
<path d="M0 1122.11L21.3 1170.56C42.7 1218.79 85.3 1315.69 128 1376.48C170.7 1437.5 213.3 1462.63 234.7 1475.2L256 1487.77V1876.29H234.7C213.3 1876.29 170.7 1876.29 128 1876.29C85.3 1876.29 42.7 1876.29 21.3 1876.29H0V1122.11Z" fill="#FF5710"/>
</g>
<defs>
<clipPath id="clip0_574_251">
<rect width="256" height="1874" fill="white"/>
</clipPath>
</defs>
</svg>
