<svg width="256" height="820" viewBox="0 0 256 820" fill="none" xmlns="http://www.w3.org/2000/svg">
<g clip-path="url(#clip0_451_1139)">
<path d="M256 0H0V820H256V0Z" fill="#FFDBDB"/>
<path d="M0 166L21.3 173.2C42.7 180.3 85.3 194.7 128 174C170.7 153.3 213.3 97.7 234.7 69.8L256 42V821H234.7C213.3 821 170.7 821 128 821C85.3 821 42.7 821 21.3 821H0V166Z" fill="#F5B2B2"/>
<path d="M0 216L21.3 239.5C42.7 263 85.3 310 128 327.7C170.7 345.3 213.3 333.7 234.7 327.8L256 322V821H234.7C213.3 821 170.7 821 128 821C85.3 821 42.7 821 21.3 821H0V216Z" fill="#DF5F5F"/>
<path d="M0 491L21.3 512.2C42.7 533.3 85.3 575.7 128 602.3C170.7 629 213.3 640 234.7 645.5L256 651V821H234.7C213.3 821 170.7 821 128 821C85.3 821 42.7 821 21.3 821H0V491Z" fill="#D32D2D"/>
</g>
<defs>
<clipPath id="clip0_451_1139">
<rect width="256" height="820" fill="white"/>
</clipPath>
</defs>
</svg>
