<svg width="256" height="820" viewBox="0 0 256 820" fill="none" xmlns="http://www.w3.org/2000/svg">
<g clip-path="url(#clip0_451_734)">
<path d="M256 0H0V820H256V0Z" fill="#C5FFF7"/>
<path d="M0 165.841L21.3 173.032C42.7 180.122 85.3 194.504 128 173.831C170.7 153.157 213.3 97.6285 234.7 69.7643L256 42V820H234.7C213.3 820 170.7 820 128 820C85.3 820 42.7 820 21.3 820H0V165.841Z" fill="#A3F4F5"/>
<path d="M0 216L21.3 239.461C42.7 262.922 85.3 309.845 128 327.515C170.7 345.086 213.3 333.505 234.7 327.615L256 321.825V820H234.7C213.3 820 170.7 820 128 820C85.3 820 42.7 820 21.3 820H0V216Z" fill="#54DBFA"/>
<path d="M0 490L21.3 511.2C42.7 532.3 85.3 574.7 128 601.3C170.7 628 213.3 639 234.7 644.5L256 650V820H234.7C213.3 820 170.7 820 128 820C85.3 820 42.7 820 21.3 820H0V490Z" fill="#15CDFF"/>
</g>
<defs>
<clipPath id="clip0_451_734">
<rect width="256" height="820" fill="white"/>
</clipPath>
</defs>
</svg>
