<svg width="20" height="18" viewBox="0 0 20 18" fill="none" xmlns="http://www.w3.org/2000/svg">
<path d="M9.53896 3.75099C9.6169 3.93667 9.79862 4.05748 10 4.05748C10.2014 4.05748 10.3831 3.93667 10.461 3.75099C11.4833 1.31537 13.763 0.255112 15.761 0.547346C16.7583 0.693216 17.6854 1.17525 18.365 1.99537C19.0436 2.81424 19.5 4.00028 19.5 5.59388C19.5 8.74708 17.1519 11.7196 14.6651 13.9633C13.437 15.0714 12.2067 15.9735 11.2823 16.5991C10.8206 16.9115 10.4364 17.1541 10.1686 17.3181C10.1058 17.3565 10.0494 17.3906 10 17.4203C9.95054 17.3906 9.89417 17.3565 9.83139 17.3181C9.56359 17.1541 9.17942 16.9115 8.71772 16.5991C7.79335 15.9735 6.56301 15.0714 5.33495 13.9633C2.84811 11.7196 0.5 8.74708 0.5 5.59388C0.5 4.00028 0.956351 2.81424 1.63498 1.99537C2.31465 1.17525 3.24175 0.693216 4.23903 0.547346C6.23697 0.255112 8.51668 1.31537 9.53896 3.75099Z" fill="#FF0000" stroke="#FF0000" stroke-linecap="round" stroke-linejoin="round"/>
</svg>
