<svg width="16" height="14" viewBox="0 0 16 14" fill="none" xmlns="http://www.w3.org/2000/svg">
<path d="M7.53896 2.86162C7.6169 3.0473 7.79862 3.16811 8 3.16811C8.20138 3.16811 8.3831 3.0473 8.46104 2.86162C9.20554 1.08781 10.8603 0.323219 12.3026 0.534193C13.0221 0.639434 13.6888 0.986603 14.1775 1.57629C14.6652 2.16472 15 3.02475 15 4.19541C15 6.50273 13.2769 8.69984 11.4151 10.3797C10.4995 11.2058 9.58165 11.8788 8.89166 12.3458C8.54714 12.5789 8.26063 12.7598 8.06119 12.8819C8.03977 12.895 8.01936 12.9075 8 12.9192C7.98063 12.9075 7.96023 12.895 7.93881 12.8819C7.73937 12.7598 7.45286 12.5789 7.10834 12.3458C6.41835 11.8788 5.50051 11.2058 4.58495 10.3797C2.72311 8.69984 1 6.50273 1 4.19541C1 3.02475 1.33482 2.16472 1.82248 1.57629C2.31117 0.986603 2.97786 0.639434 3.69736 0.534193C5.13975 0.323219 6.79446 1.08781 7.53896 2.86162Z" fill="#FF0000" stroke="#FF0000" stroke-linecap="round" stroke-linejoin="round"/>
</svg>
