<svg width="10" height="9" viewBox="0 0 10 9" fill="none" xmlns="http://www.w3.org/2000/svg">
<path d="M4.53896 1.97225C4.6169 2.15793 4.79862 2.27874 5 2.27874C5.20138 2.27874 5.3831 2.15793 5.46104 1.97225C5.92776 0.860255 6.95747 0.391326 7.8443 0.521041C8.28603 0.585651 8.6923 0.797961 8.99002 1.15721C9.28671 1.5152 9.5 2.04922 9.5 2.79694C9.5 4.25839 8.40189 5.68011 7.16505 6.79605C6.56199 7.34018 5.95665 7.78416 5.50103 8.09248C5.29919 8.22906 5.12767 8.33839 5 8.41736C4.87233 8.33839 4.70081 8.22906 4.49897 8.09248C4.04335 7.78416 3.43801 7.34018 2.83495 6.79605C1.59811 5.68011 0.5 4.25839 0.5 2.79694C0.5 2.04922 0.713295 1.5152 1.00998 1.15721C1.3077 0.797961 1.71397 0.585651 2.1557 0.521041C3.04253 0.391326 4.07224 0.860255 4.53896 1.97225Z" stroke="#333333" stroke-linecap="round" stroke-linejoin="round"/>
</svg>
