<svg width="187" height="31" viewBox="0 0 187 31" fill="none" xmlns="http://www.w3.org/2000/svg">
<path d="M22.2915 20.312C21.4275 21.208 17.8435 23.256 14.6115 23.256C0.8835 23.256 0.7235 0.344 16.4995 0.344C21.3315 0.344 22.9955 2.84 22.9955 5.08C22.9955 7.48 21.0435 9.432 18.2915 10.232C17.5555 10.456 17.2035 9.72 17.5875 9.208C19.5715 6.68 19.0595 2.488 15.8915 2.488C8.3715 2.488 5.5555 19.704 15.7315 19.704C17.4915 19.704 18.8035 18.872 18.8035 17.944V16.024C18.8035 14.936 18.3235 14.168 17.9395 13.4C17.7475 13.016 17.7475 12.536 18.4195 12.536H23.1555C23.8275 12.536 23.8275 13.016 23.6355 13.4C23.2515 14.168 22.7715 14.936 22.7715 16.024V19.064C22.7715 19.48 22.5795 19.992 22.2915 20.312ZM111.143 7.48C111.143 10.616 109.351 12.792 105.287 13.784C109.895 15.32 108.423 21.624 111.559 21.624C112.327 21.624 112.775 23.256 109.383 23.256C106.855 23.256 105.447 22.456 104.423 20.76C103.143 18.648 103.815 15.224 101.223 14.36C100.647 14.36 100.039 14.392 99.3993 14.392H98.9513V19.512C98.9513 20.6 99.4313 21.368 99.8153 22.136C100.007 22.52 100.007 23 99.3353 23H94.5993C93.9273 23 93.9273 22.52 94.1193 22.136C94.5033 21.368 94.9833 20.6 94.9833 19.512V4.088C94.9833 3 94.5033 2.232 94.1193 1.464C93.9273 1.08 93.9273 0.599998 94.5993 0.599998H99.3993C107.687 0.599998 111.143 3.16 111.143 7.48ZM98.9513 12.472H100.103C105.063 12.472 106.983 10.328 106.983 7.48C106.983 4.664 105.063 2.52 100.103 2.52H98.9513V12.472Z" fill="#FF5710"/>
<path d="M33.4623 9.048C31.3183 9.048 30.3263 11.704 30.3263 13.208V19.512C30.3263 20.6 30.8063 21.368 31.1903 22.136C31.3823 22.52 31.3823 23 30.7103 23H25.9743C25.3023 23 25.3023 22.52 25.4943 22.136C25.8783 21.368 26.3583 20.6 26.3583 19.512V9.816C26.3583 8.728 26.1983 8.024 25.7183 7.736C25.3343 7.48 25.3663 6.744 26.2623 6.744C28.3103 6.744 29.7823 8.024 30.1983 9.88C31.2223 7.96 32.8223 6.744 35.0943 6.744C38.1663 6.744 39.7343 8.664 39.7343 10.744C39.7343 12.952 37.8783 14.968 35.3183 15.736C34.7423 15.896 34.4863 15.512 34.8063 15.096C36.6623 12.728 36.0863 9.048 33.4623 9.048ZM50.231 6.744C53.495 6.744 55.447 9.144 54.775 11.608C53.591 15.96 46.455 15.864 48.119 18.872C48.759 19.192 49.527 19.352 50.423 19.352C52.727 19.352 54.519 17.752 55.031 16.696C55.127 16.504 55.287 16.408 55.415 16.408C55.639 16.408 55.831 16.632 55.831 16.984C55.831 18.808 53.847 23.256 49.047 23.256C39.127 23.256 38.935 6.744 50.231 6.744ZM46.935 17.944C46.807 15.416 51.607 13.208 51.607 10.648C51.607 9.368 50.935 8.6 49.815 8.6C46.583 8.6 44.407 15.032 46.935 17.944ZM61.4213 14.936C60.2373 14.424 58.9893 13.304 58.9893 11.576C58.9893 8.76 61.5493 6.744 65.4853 6.744C69.1013 6.744 71.5013 8.344 71.5013 11.224V20.248C71.5013 21.336 71.6293 22.04 72.1093 22.296C72.4933 22.52 72.4613 23.256 71.5973 23.256C69.6453 23.256 68.0773 22.456 67.6613 20.696C66.7973 21.912 64.9413 23.256 62.3173 23.256C59.0213 23.256 57.5813 21.656 57.5813 19.416C57.5813 17.144 59.7573 15.576 61.4213 14.936ZM67.5333 17.304V11.096C67.5333 9.272 66.4453 8.344 65.1973 8.344C63.5653 8.344 62.2533 9.656 62.2533 11.512C62.2533 13.528 63.7573 14.232 65.0052 14.584C65.4213 14.68 65.4533 15.096 65.0052 15.288C63.9493 15.736 61.9013 17.528 61.9013 19.48C61.9013 20.696 62.5733 21.432 63.5973 21.432C65.6133 21.432 67.5333 19.32 67.5333 17.304ZM82.8485 9.08H80.0325V19.384C80.0325 20.568 80.6085 21.112 81.4405 21.112C82.2405 21.112 82.6245 20.632 82.7845 20.216C82.9445 19.864 83.2325 19.704 83.4885 19.704C83.7765 19.704 84.0645 19.928 84.0645 20.344C84.0645 20.952 83.5525 23.256 80.0645 23.256C77.0245 23.256 76.0645 21.304 76.0645 18.648V9.08H74.2725C73.6965 9.08 73.3125 8.696 73.3125 8.12V7.96C73.3125 7.032 75.0405 6.84 76.4485 5.304C77.8565 3.768 77.8565 1.848 79.3605 1.848C79.7765 1.848 80.0325 2.104 80.0325 2.52V7H82.8485C83.4245 7 83.8085 7.384 83.8085 7.96V8.12C83.8085 8.696 83.4245 9.08 82.8485 9.08ZM122.294 6.744C125.558 6.744 127.51 9.144 126.838 11.608C125.654 15.96 118.518 15.864 120.182 18.872C120.822 19.192 121.59 19.352 122.486 19.352C124.79 19.352 126.582 17.752 127.094 16.696C127.19 16.504 127.35 16.408 127.478 16.408C127.702 16.408 127.894 16.632 127.894 16.984C127.894 18.808 125.91 23.256 121.11 23.256C111.189 23.256 110.997 6.744 122.294 6.744ZM118.998 17.944C118.87 15.416 123.67 13.208 123.67 10.648C123.67 9.368 122.998 8.6 121.878 8.6C118.646 8.6 116.47 15.032 118.998 17.944ZM138.284 8.6C134.092 8.6 131.692 19.352 138.892 19.352C141.196 19.352 142.988 17.752 143.5 16.696C143.596 16.504 143.756 16.408 143.884 16.408C144.108 16.408 144.3 16.632 144.3 16.984C144.3 18.808 142.316 23.256 137.516 23.256C127.596 23.256 127.404 6.744 138.7 6.744C142.06 6.744 143.404 8.76 143.404 10.584C143.404 12.504 141.836 14.04 139.596 14.712C138.988 14.872 138.7 14.296 139.02 13.912C140.62 11.832 140.332 8.6 138.284 8.6ZM146.85 2.616C146.85 1.24 147.81 0.311998 149.186 0.311998C150.562 0.311998 151.522 1.24 151.522 2.616C151.522 4.024 150.562 4.952 149.186 4.952C147.81 4.952 146.85 4.024 146.85 2.616ZM151.17 11V19.512C151.17 20.6 151.65 21.368 152.034 22.136C152.226 22.52 152.226 23 151.554 23H146.818C146.146 23 146.146 22.52 146.338 22.136C146.722 21.368 147.202 20.6 147.202 19.512V9.816C147.202 8.728 147.042 8.024 146.562 7.736C146.178 7.48 146.21 6.744 147.106 6.744C149.538 6.744 151.17 8.568 151.17 11ZM159.045 22.168V26.968C159.045 28.056 159.205 28.76 159.685 29.048C160.069 29.304 160.037 30.04 159.141 30.04C156.709 30.04 155.077 28.216 155.077 25.784V10.488C155.077 9.4 154.597 8.632 154.213 7.864C154.021 7.48 154.021 7 154.693 7H156.165C157.669 7 158.725 7.864 158.981 9.24C160.005 7.672 161.541 6.744 163.525 6.744C167.685 6.744 170.437 10.36 170.437 14.968C170.437 19.64 167.685 23.256 162.757 23.256C161.317 23.256 160.037 22.872 159.045 22.168ZM162.757 21.688C165.029 21.688 166.277 18.776 166.277 14.968C166.277 11.16 165.029 8.248 162.757 8.248C160.741 8.248 159.045 10.808 159.045 14.776V15.192C159.045 19.608 160.869 21.688 162.757 21.688ZM181.262 6.744C184.526 6.744 186.478 9.144 185.806 11.608C184.622 15.96 177.486 15.864 179.15 18.872C179.79 19.192 180.558 19.352 181.454 19.352C183.758 19.352 185.55 17.752 186.062 16.696C186.158 16.504 186.318 16.408 186.446 16.408C186.67 16.408 186.862 16.632 186.862 16.984C186.862 18.808 184.878 23.256 180.078 23.256C170.158 23.256 169.966 6.744 181.262 6.744ZM177.966 17.944C177.838 15.416 182.638 13.208 182.638 10.648C182.638 9.368 181.966 8.6 180.846 8.6C177.614 8.6 175.438 15.032 177.966 17.944Z" fill="#333333"/>
</svg>
