<svg width="13" height="13" viewBox="0 0 13 13" fill="none" xmlns="http://www.w3.org/2000/svg">
<path d="M4.31219 9.10179C5.20263 9.80198 6.49034 10.2248 7.72711 10.2248C10.5871 10.2248 12.8495 7.93978 12.8495 5.17131C12.8495 2.40257 10.5871 0.117838 7.72711 0.117838C4.86711 0.117838 2.60473 2.40257 2.60473 5.17131C2.60473 6.34849 3.04127 7.40411 3.74304 8.25955L0.328117 11.3478L1.18185 12.19L4.31219 9.10179ZM3.74304 5.17131C3.74304 3.02134 5.50627 1.24083 7.72711 1.24083C9.94794 1.24083 11.7112 3.02134 11.7112 5.17131C11.7112 7.32129 9.94794 9.10179 7.72711 9.10179C5.50627 9.10179 3.74304 7.32129 3.74304 5.17131Z" fill="white"/>
</svg>
