<svg width="79" height="79" viewBox="0 0 79 79" fill="none" xmlns="http://www.w3.org/2000/svg">
<path d="M56.3458 37.4889C54.2089 37.4889 52.362 36.5718 50.8051 34.7375C49.2787 32.8726 47.8439 30.274 46.5007 26.9417C43.8143 30.2434 41.8605 33.9426 40.6394 38.0392C38.3499 36.1438 37.2051 34.4623 37.2051 32.9949C37.2051 31.9249 37.8614 30.6103 39.1741 29.0511C40.5173 27.4614 42.4711 25.4743 45.0354 23.0897C43.0816 17.8008 41.7384 14.5296 41.0057 13.2762C40.3036 11.9922 39.7236 11.0445 39.2657 10.433C40.7921 9.63818 42.1811 9.24075 43.4327 9.24075C44.4401 9.24075 45.2643 9.66875 45.9054 10.5248C46.6686 11.4725 47.2486 12.4966 47.6455 13.5972C48.0423 14.6672 48.3323 15.5232 48.5155 16.1652C48.7292 16.7766 49.0345 17.6938 49.4313 18.9167C53.7968 14.6366 56.2084 11.2738 56.6663 8.82803C58.4675 10.3566 59.368 11.6865 59.368 12.8176C59.368 13.6125 59.0933 14.4226 58.5438 15.2481C57.9943 16.0735 57.4143 16.7766 56.8037 17.3575C56.1932 17.9078 55.1858 18.7638 53.7815 19.9255C52.4078 21.0567 51.3546 21.9585 50.6219 22.6311C51.6904 25.5966 53.1252 28.4856 54.9263 31.2982C56.7274 34.1107 58.1775 36.0368 59.2764 37.0762C58.1775 37.3513 57.2006 37.4889 56.3458 37.4889Z" fill="#333333"/>
<path d="M26.0401 45.1318C23.9032 45.1318 22.0563 44.2147 20.4994 42.3804C18.973 40.5155 17.5382 37.9169 16.195 34.5846C13.5086 37.8864 11.5549 41.5855 10.3338 45.6821C8.04419 43.7867 6.89941 42.1052 6.89941 40.6378C6.89941 39.5678 7.55575 38.2532 8.86844 36.6941C10.2116 35.1043 12.1654 33.1172 14.7297 30.7326C12.776 25.4437 11.4327 22.1726 10.7001 20.9191C9.99795 19.6351 9.41793 18.6874 8.96002 18.076C10.4864 17.2811 11.8754 16.8837 13.127 16.8837C14.1344 16.8837 14.9587 17.3117 15.5997 18.1677C16.3629 19.1154 16.943 20.1395 17.3398 21.2401C17.7367 22.3101 18.0267 23.1661 18.2098 23.8081C18.4235 24.4196 18.7288 25.3367 19.1257 26.5596C23.4911 22.2795 25.9028 18.9167 26.3607 16.4709C28.1618 17.9995 29.0624 19.3294 29.0624 20.4605C29.0624 21.2554 28.7876 22.0656 28.2381 22.891C27.6886 23.7164 27.1086 24.4196 26.4981 25.0004C25.8875 25.5507 24.8801 26.4067 23.4758 27.5684C22.1021 28.6996 21.0489 29.6014 20.3162 30.274C21.3847 33.2395 22.8195 36.1285 24.6206 38.9411C26.4217 41.7537 27.8718 43.6797 28.9708 44.7191C27.8718 44.9942 26.8949 45.1318 26.0401 45.1318Z" fill="#333333"/>
<path fill-rule="evenodd" clip-rule="evenodd" d="M66.9648 55.4899C73.7695 51.955 76.8772 47.1818 76.0917 42.6154C75.9095 41.7955 75.0962 41.2805 74.2786 41.4671L65.6968 43.4022L62.7355 44.0721L52.5909 46.3619L49.6242 47.0284L39.3711 49.3405L36.4142 50.0097L33.4626 50.6753L30.5135 51.3425L13.9902 55.0684L11.0224 55.7377L5.5212 56.9803C2.65132 57.6275 1.22608 60.2716 1.72445 62.4886C2.22297 64.7058 4.64601 66.4992 7.51593 65.852L14.1041 64.3664L17.2651 63.6514L32.5074 60.21L35.459 59.5445L38.4081 58.8773L41.3628 58.2172C42.9168 57.8982 44.0869 57.8347 45.083 58.4656L47.2059 59.8101C47.7902 60.1801 48.4056 60.4055 49.0144 60.5283L52.3324 60.3959C56.2462 59.499 60.4577 58.3172 63.7742 56.9599L66.9648 55.4899ZM48.8235 57.2492C49.335 57.5731 49.8023 57.654 50.4856 57.6121C57.0305 56.3928 73.5331 51.5705 72.8184 44.9082C48.5309 50.3819 29.0352 54.7895 6.18549 59.9254C4.62744 60.2767 4.50183 61.0859 4.66783 61.8248C4.83394 62.5638 5.29141 63.2392 6.84936 62.8878L40.1835 55.3625C42.1463 54.92 44.5297 54.5298 46.7007 55.9047L48.8235 57.2492Z" fill="#FF5710"/>
</svg>
