<svg width="66" height="65" viewBox="0 0 66 65" fill="none" xmlns="http://www.w3.org/2000/svg">
<path fill-rule="evenodd" clip-rule="evenodd" d="M43.6253 14.685L53.3952 4.90764C53.9212 4.44257 54.5503 4.31463 55.1774 4.90764C55.6697 5.39871 55.6697 6.19629 55.1774 6.68737L45.3977 16.467C44.9074 16.9545 44.1156 16.9545 43.6253 16.467C43.1314 15.9757 43.1314 15.1763 43.6253 14.685ZM47.1798 18.2394L56.9497 8.46952C57.3919 8.0591 58.0751 7.8355 58.7294 8.46952C59.2168 8.95972 59.2168 9.75166 58.7294 10.2419L48.9521 20.0215C48.4619 20.5089 47.67 20.5089 47.1798 20.0215C46.6858 19.5301 46.6858 18.7308 47.1798 18.2394ZM32.4096 61.3988C38.8024 61.3988 44.6436 59.1359 49.2099 55.3602C49.7264 54.9387 50.3956 54.9154 50.9822 55.5273C51.4266 56.0625 51.3518 56.8568 50.8153 57.2996C45.8165 61.4329 39.3976 63.9151 32.4096 63.9151C25.5109 63.9151 19.1585 61.4955 14.188 57.4568C13.6453 57.0198 13.5616 56.2247 14.0014 55.6843C14.4384 55.1412 15.2334 55.0578 15.7737 55.4977C20.3141 59.1869 26.0985 61.3988 32.4096 61.3988Z" fill="#333333"/>
<path fill-rule="evenodd" clip-rule="evenodd" d="M49.8408 1.35315L43.0632 8.13318C39.7648 6.82448 36.1697 6.10316 32.4096 6.10316C27.4677 6.10316 22.8039 7.34076 18.7317 9.52997C13.2319 6.31964 8.5055 6.25411 5.65281 8.83031C5.1589 9.32172 5.1589 10.1211 5.65281 10.6125L10.8201 15.7798C6.26703 20.8883 3.49999 27.6296 3.5 35.0053C3.5 39.5183 4.53643 43.8037 6.38433 47.6129C6.69015 48.2343 7.44103 48.4912 8.06338 48.1873C8.68569 47.8823 8.94374 47.1313 8.64024 46.5083C6.95369 43.0316 6.01366 39.1339 6.01366 35.0053C6.01365 28.3095 8.50204 22.213 12.6047 17.5619L18.7145 23.6693C16.166 26.7462 14.6323 30.7015 14.6323 35.0029C14.6323 37.5457 15.1673 39.9782 16.1321 42.1707L11.6277 46.6753C9.89962 48.4033 10.0712 50.8997 11.4043 52.2328C12.7374 53.5659 15.2338 53.7376 16.9618 52.0094L20.6415 48.3298C23.7766 51.0978 27.9053 52.7802 32.4096 52.7802C36.7122 52.7802 40.6685 51.2477 43.7456 48.6979L47.0595 52.0094C48.7876 53.7374 51.2742 53.5657 52.6073 52.2328C53.9403 50.8997 54.1218 48.4033 52.3937 46.6753L48.4268 42.7083C49.5491 40.3764 50.1746 37.7618 50.1746 35.0053C50.1746 31.6024 49.2197 28.4148 47.5578 25.7092C49.4169 25.6506 51.195 24.8925 52.514 23.5736L54.8926 21.1924C57.3656 25.2102 58.7957 29.9332 58.7957 35.0029C58.7957 39.7113 57.5644 44.1225 55.4081 47.9467C55.0656 48.5538 55.2826 49.3237 55.8917 49.6627C56.4959 49.999 57.2582 49.7836 57.5977 49.1814C59.9597 44.9925 61.3093 40.1496 61.3093 35.0029C61.3093 29.2467 59.6214 23.8744 56.7165 19.3661L62.2839 13.7938C62.7697 13.3039 62.7697 12.514 62.2839 12.024C61.6303 11.4449 60.9808 11.624 60.5115 12.024L50.7318 21.7914C49.8291 22.6941 48.6037 23.203 47.3271 23.203C44.8976 22.8953 42.4754 23.15 40.0635 25.3557L35.5639 29.8528L33.7867 28.078L38.2911 23.5736C40.7609 21.1794 40.4341 19.1772 40.4341 16.31C40.4341 15.0334 40.9405 13.8079 41.8432 12.9052L51.6229 3.13529C52.1169 2.64396 52.1169 1.84452 51.6229 1.35315C51.0041 0.807797 50.3411 0.963136 49.8408 1.35315ZM41.1117 10.0825C38.388 9.13187 35.4645 8.61692 32.4096 8.61692C28.3908 8.61692 24.5858 9.51575 21.1791 11.1183C23.6033 12.8451 26.3019 15.278 28.6685 17.6283C31.6995 16.9885 34.7262 17.1804 37.9205 18.1069V16.3101C37.9205 14.3678 38.69 12.5066 40.0635 11.1331L41.1117 10.0825ZM28.0204 21.4871C28.0205 20.9844 27.8697 20.6205 27.5369 20.1592C23.7759 16.1046 13.0673 6.65606 8.71369 10.1119C23.3358 24.7374 35.0826 36.4713 48.8293 50.2372C49.7674 51.1754 50.3905 50.9048 50.8349 50.4606C51.2793 50.0163 51.5496 49.3956 50.6115 48.4576L30.5341 28.3899C29.3524 27.208 28.0205 25.7076 28.0204 23.5737V21.4871ZM36.509 21.7943C36.8695 21.4338 37.1679 21.0214 37.3952 20.5767C35.3002 19.8652 32.638 19.5708 30.2347 19.8992C30.4189 20.381 30.5342 20.9131 30.5341 21.4874V23.574C30.5342 24.5532 31.0982 25.3466 32.0119 26.2962L36.509 21.7943ZM26.6728 31.6304L20.4991 25.4567C18.3996 28.0705 17.1459 31.3828 17.1459 35.0033C17.1459 36.8437 17.4721 38.6056 18.0665 40.2368L26.6728 31.6304ZM47.6609 35.0053C47.6609 31.5267 46.5046 28.3325 44.5508 25.7682C43.5322 25.9176 42.5796 26.3916 41.8432 27.128L37.3412 31.6301L46.5219 40.806C47.2565 39.0187 47.6609 37.062 47.6609 35.0053ZM30.2322 35.187L28.455 33.4098L13.4073 48.4576C12.4692 49.3956 12.7396 50.0164 13.1839 50.4606C13.6283 50.9048 14.2415 51.1753 15.1796 50.2373C20.198 45.2216 25.2124 40.2028 30.2322 35.187ZM41.9585 46.9109L32.0095 36.9618L22.4237 46.5476C25.1002 48.8633 28.5871 50.2642 32.4096 50.2642C36.0313 50.2642 39.3445 49.0119 41.9585 46.9109Z" fill="#333333"/>
<path fill-rule="evenodd" clip-rule="evenodd" d="M49.8408 1.35315L43.0632 8.13318L41.1117 10.0825L40.0635 11.1331C38.69 12.5066 37.9205 14.3678 37.9205 16.3101V18.1069L37.3952 20.5767C37.1679 21.0214 36.8695 21.4338 36.509 21.7943L32.0119 26.2962C31.0982 25.3466 30.5342 24.5532 30.5341 23.574V21.4874C30.5342 20.9131 30.4189 20.381 30.2347 19.8992L28.6685 17.6283C26.3019 15.278 23.6033 12.8451 21.1791 11.1183L18.7317 9.52997C13.2319 6.31964 8.5055 6.25411 5.65281 8.83031C5.1589 9.32172 5.1589 10.1211 5.65281 10.6125L10.8201 15.7798L12.6047 17.5619L18.7145 23.6693L20.4991 25.4567L26.6728 31.6304L18.0665 40.2368L16.1321 42.1707L11.6277 46.6753C9.89962 48.4033 10.0712 50.8997 11.4043 52.2328C12.7374 53.5659 15.2338 53.7376 16.9618 52.0094L20.6415 48.3298L22.4237 46.5476L32.0095 36.9618L41.9585 46.9109L43.7456 48.6979L47.0595 52.0094C48.7876 53.7374 51.2742 53.5657 52.6073 52.2328C53.9403 50.8997 54.1218 48.4033 52.3937 46.6753L48.4268 42.7083L46.5219 40.806L37.3412 31.6301L41.8432 27.128C42.5796 26.3916 43.5322 25.9176 44.5508 25.7682L47.5578 25.7092C49.4169 25.6506 51.195 24.8925 52.514 23.5736L54.8926 21.1924L56.7165 19.3661L62.2839 13.7938C62.7697 13.3039 62.7697 12.514 62.2839 12.024C61.6303 11.4449 60.9808 11.624 60.5115 12.024L50.7318 21.7914C49.8291 22.6941 48.6037 23.203 47.3271 23.203C44.8976 22.8953 42.4754 23.15 40.0635 25.3557L35.5639 29.8528L33.7867 28.078L38.2911 23.5736C40.7609 21.1794 40.4341 19.1772 40.4341 16.31C40.4341 15.0334 40.9405 13.8079 41.8432 12.9052L51.6229 3.13529C52.1169 2.64396 52.1169 1.84452 51.6229 1.35315C51.0041 0.807797 50.3411 0.963136 49.8408 1.35315ZM28.0204 21.4871C28.0205 20.9844 27.8697 20.6205 27.5369 20.1592C23.7759 16.1046 13.0673 6.65606 8.71369 10.1119C23.3358 24.7374 35.0826 36.4713 48.8293 50.2372C49.7674 51.1754 50.3905 50.9048 50.8349 50.4606C51.2793 50.0163 51.5496 49.3956 50.6115 48.4576L30.5341 28.3899C29.3524 27.208 28.0205 25.7076 28.0204 23.5737V21.4871ZM30.2322 35.187L28.455 33.4098L13.4073 48.4576C12.4692 49.3956 12.7396 50.0164 13.1839 50.4606C13.6283 50.9048 14.2415 51.1753 15.1796 50.2373C20.198 45.2216 25.2124 40.2028 30.2322 35.187Z" fill="#FF5710"/>
<path fill-rule="evenodd" clip-rule="evenodd" d="M53.3952 4.90764L43.6253 14.685C43.1314 15.1763 43.1314 15.9757 43.6253 16.467C44.1156 16.9545 44.9074 16.9545 45.3977 16.467L55.1774 6.68737C55.6697 6.19629 55.6697 5.39871 55.1774 4.90764C54.5503 4.31463 53.9212 4.44257 53.3952 4.90764ZM56.9497 8.46952L47.1798 18.2394C46.6858 18.7308 46.6858 19.5301 47.1798 20.0215C47.67 20.5089 48.4619 20.5089 48.9521 20.0215L58.7294 10.2419C59.2168 9.75166 59.2168 8.95972 58.7294 8.46952C58.0751 7.8355 57.3919 8.0591 56.9497 8.46952Z" fill="#FF5710"/>
</svg>
