<svg width="20" height="21" viewBox="0 0 20 21" fill="none" xmlns="http://www.w3.org/2000/svg">
<path d="M15.833 3H4.16634C3.7061 3 3.33301 3.3731 3.33301 3.83333V8.97071C3.33301 15.122 8.56147 17.4596 9.75785 17.914C9.91637 17.9742 10.083 17.9742 10.2415 17.914C11.4379 17.4596 16.6663 15.122 16.6663 8.97071V3.83333C16.6663 3.3731 16.2932 3 15.833 3Z" stroke="#333333" stroke-width="2" stroke-linecap="round" stroke-linejoin="round"/>
<path d="M11.25 12.9999C11.25 13.6903 10.6904 14.2499 10 14.2499C9.30964 14.2499 8.75 13.6903 8.75 12.9999C8.75 12.3096 9.30964 11.7499 10 11.7499C10.6904 11.7499 11.25 12.3096 11.25 12.9999Z" fill="#333333"/>
<path d="M10 9.66666L10 6.33332" stroke="#333333" stroke-width="2" stroke-linecap="round" stroke-linejoin="round"/>
</svg>
