<svg width="15" height="14" viewBox="0 0 15 14" fill="none" xmlns="http://www.w3.org/2000/svg">
<path d="M1.83936 2.33334H3.00602L3.16511 4.08334L3.41175 6.79639C3.51039 7.8814 4.45932 8.68786 5.54604 8.61024L10.1468 8.28162C11.0859 8.21454 11.851 7.50157 11.9842 6.56954L12.3394 4.08334" stroke="#333333" stroke-linecap="round" stroke-linejoin="round"/>
<path d="M7.67285 3.5V5.83333" stroke="#333333" stroke-linecap="round" stroke-linejoin="round"/>
<path d="M6.50586 4.66666H8.83919" stroke="#333333" stroke-linecap="round" stroke-linejoin="round"/>
<path d="M5.33919 11.6667C5.66136 11.6667 5.92253 11.4055 5.92253 11.0833C5.92253 10.7612 5.66136 10.5 5.33919 10.5C5.01703 10.5 4.75586 10.7612 4.75586 11.0833C4.75586 11.4055 5.01703 11.6667 5.33919 11.6667Z" stroke="#333333" stroke-linecap="round" stroke-linejoin="round"/>
<path d="M10.0062 11.6667C10.3284 11.6667 10.5895 11.4055 10.5895 11.0833C10.5895 10.7612 10.3284 10.5 10.0062 10.5C9.68402 10.5 9.42285 10.7612 9.42285 11.0833C9.42285 11.4055 9.68402 11.6667 10.0062 11.6667Z" stroke="#333333" stroke-linecap="round" stroke-linejoin="round"/>
</svg>
