<svg width="14" height="13" viewBox="0 0 14 13" fill="none" xmlns="http://www.w3.org/2000/svg">
<path d="M9.12722 4.00974L7.32342 0.201564C7.19612 -0.0671881 6.80388 -0.0671879 6.67658 0.201564L4.87278 4.00974C4.8209 4.11928 4.71431 4.19469 4.5913 4.20889L0.314663 4.70267C0.012851 4.73752 -0.108358 5.10079 0.11478 5.30174L3.27661 8.1491C3.36755 8.231 3.40826 8.35302 3.38412 8.47133L2.54482 12.5847C2.48558 12.875 2.80291 13.0995 3.06812 12.9549L6.82603 10.9065C6.93412 10.8476 7.06588 10.8476 7.17397 10.9065L10.9319 12.9549C11.1971 13.0995 11.5144 12.875 11.4552 12.5847L10.6159 8.47133C10.5917 8.35302 10.6325 8.231 10.7234 8.1491L13.8852 5.30174C14.1084 5.10079 13.9871 4.73752 13.6853 4.70267L9.4087 4.20889C9.2857 4.19469 9.1791 4.11928 9.12722 4.00974Z" fill="#FFC641"/>
</svg>
